%TF.GenerationSoftware,KiCad,Pcbnew,8.0.5*%
%TF.CreationDate,2024-09-12T11:42:49-05:00*%
%TF.ProjectId,avion,6176696f-6e2e-46b6-9963-61645f706362,rev?*%
%TF.SameCoordinates,Original*%
%TF.FileFunction,Soldermask,Bot*%
%TF.FilePolarity,Negative*%
%FSLAX46Y46*%
G04 Gerber Fmt 4.6, Leading zero omitted, Abs format (unit mm)*
G04 Created by KiCad (PCBNEW 8.0.5) date 2024-09-12 11:42:49*
%MOMM*%
%LPD*%
G01*
G04 APERTURE LIST*
G04 Aperture macros list*
%AMRoundRect*
0 Rectangle with rounded corners*
0 $1 Rounding radius*
0 $2 $3 $4 $5 $6 $7 $8 $9 X,Y pos of 4 corners*
0 Add a 4 corners polygon primitive as box body*
4,1,4,$2,$3,$4,$5,$6,$7,$8,$9,$2,$3,0*
0 Add four circle primitives for the rounded corners*
1,1,$1+$1,$2,$3*
1,1,$1+$1,$4,$5*
1,1,$1+$1,$6,$7*
1,1,$1+$1,$8,$9*
0 Add four rect primitives between the rounded corners*
20,1,$1+$1,$2,$3,$4,$5,0*
20,1,$1+$1,$4,$5,$6,$7,0*
20,1,$1+$1,$6,$7,$8,$9,0*
20,1,$1+$1,$8,$9,$2,$3,0*%
G04 Aperture macros list end*
%ADD10C,3.200000*%
%ADD11R,1.700000X1.700000*%
%ADD12O,1.700000X1.700000*%
%ADD13C,3.000000*%
%ADD14RoundRect,0.102000X-1.000000X-1.000000X1.000000X-1.000000X1.000000X1.000000X-1.000000X1.000000X0*%
%ADD15C,2.204000*%
G04 APERTURE END LIST*
D10*
%TO.C,REF\u002A\u002A*%
X231000000Y-68000000D03*
%TD*%
%TO.C,REF\u002A\u002A*%
X178000000Y-115000000D03*
%TD*%
D11*
%TO.C,J6*%
X231445000Y-85500000D03*
D12*
X228905000Y-85500000D03*
X226365000Y-85500000D03*
%TD*%
D11*
%TO.C,J1*%
X183960000Y-102620000D03*
D12*
X186500000Y-102620000D03*
X183960000Y-100080000D03*
X186500000Y-100080000D03*
X183960000Y-97540000D03*
X186500000Y-97540000D03*
X183960000Y-95000000D03*
X186500000Y-95000000D03*
%TD*%
D11*
%TO.C,J8*%
X231500000Y-93000000D03*
D12*
X228960000Y-93000000D03*
X226420000Y-93000000D03*
%TD*%
D13*
%TO.C,U1*%
X194020000Y-63560000D03*
X194020000Y-110510000D03*
X218530000Y-63560000D03*
X218530000Y-110510000D03*
D14*
X193600000Y-71520000D03*
D15*
X193600000Y-74060000D03*
X193600000Y-76600000D03*
X193600000Y-79140000D03*
X193600000Y-81680000D03*
X193600000Y-84220000D03*
X193600000Y-86760000D03*
X193600000Y-89300000D03*
X193600000Y-91840000D03*
X193600000Y-94380000D03*
X193600000Y-96920000D03*
X193600000Y-99460000D03*
X193600000Y-102000000D03*
X193600000Y-104540000D03*
X193600000Y-107080000D03*
X219000000Y-107080000D03*
X219000000Y-104540000D03*
X219000000Y-102000000D03*
X219000000Y-99460000D03*
X219000000Y-96920000D03*
X219000000Y-94380000D03*
X219000000Y-91840000D03*
X219000000Y-89300000D03*
X219000000Y-86760000D03*
X219000000Y-84220000D03*
X219000000Y-81680000D03*
X219000000Y-79140000D03*
X219000000Y-76600000D03*
X219000000Y-74060000D03*
X219000000Y-71520000D03*
%TD*%
D11*
%TO.C,J9*%
X231000000Y-63000000D03*
D12*
X228460000Y-63000000D03*
X225920000Y-63000000D03*
%TD*%
D11*
%TO.C,J7*%
X231445000Y-97000000D03*
D12*
X228905000Y-97000000D03*
X226365000Y-97000000D03*
%TD*%
D11*
%TO.C,J4*%
X187000000Y-63000000D03*
D12*
X184460000Y-63000000D03*
X181920000Y-63000000D03*
X179380000Y-63000000D03*
%TD*%
D11*
%TO.C,J5*%
X231445000Y-89200000D03*
D12*
X228905000Y-89200000D03*
X226365000Y-89200000D03*
%TD*%
M02*
