%TF.GenerationSoftware,KiCad,Pcbnew,8.0.5*%
%TF.CreationDate,2024-09-12T11:42:49-05:00*%
%TF.ProjectId,avion,6176696f-6e2e-46b6-9963-61645f706362,rev?*%
%TF.SameCoordinates,Original*%
%TF.FileFunction,Legend,Top*%
%TF.FilePolarity,Positive*%
%FSLAX46Y46*%
G04 Gerber Fmt 4.6, Leading zero omitted, Abs format (unit mm)*
G04 Created by KiCad (PCBNEW 8.0.5) date 2024-09-12 11:42:49*
%MOMM*%
%LPD*%
G01*
G04 APERTURE LIST*
%ADD10C,0.150000*%
%ADD11C,0.120000*%
%ADD12C,0.127000*%
%ADD13C,0.200000*%
G04 APERTURE END LIST*
D10*
X229666666Y-64254819D02*
X229333333Y-63778628D01*
X229095238Y-64254819D02*
X229095238Y-63254819D01*
X229095238Y-63254819D02*
X229476190Y-63254819D01*
X229476190Y-63254819D02*
X229571428Y-63302438D01*
X229571428Y-63302438D02*
X229619047Y-63350057D01*
X229619047Y-63350057D02*
X229666666Y-63445295D01*
X229666666Y-63445295D02*
X229666666Y-63588152D01*
X229666666Y-63588152D02*
X229619047Y-63683390D01*
X229619047Y-63683390D02*
X229571428Y-63731009D01*
X229571428Y-63731009D02*
X229476190Y-63778628D01*
X229476190Y-63778628D02*
X229095238Y-63778628D01*
X230095238Y-63731009D02*
X230428571Y-63731009D01*
X230571428Y-64254819D02*
X230095238Y-64254819D01*
X230095238Y-64254819D02*
X230095238Y-63254819D01*
X230095238Y-63254819D02*
X230571428Y-63254819D01*
X231333333Y-63731009D02*
X231000000Y-63731009D01*
X231000000Y-64254819D02*
X231000000Y-63254819D01*
X231000000Y-63254819D02*
X231476190Y-63254819D01*
X232000000Y-63254819D02*
X232000000Y-63492914D01*
X231761905Y-63397676D02*
X232000000Y-63492914D01*
X232000000Y-63492914D02*
X232238095Y-63397676D01*
X231857143Y-63683390D02*
X232000000Y-63492914D01*
X232000000Y-63492914D02*
X232142857Y-63683390D01*
X232761905Y-63254819D02*
X232761905Y-63492914D01*
X232523810Y-63397676D02*
X232761905Y-63492914D01*
X232761905Y-63492914D02*
X233000000Y-63397676D01*
X232619048Y-63683390D02*
X232761905Y-63492914D01*
X232761905Y-63492914D02*
X232904762Y-63683390D01*
X176666666Y-111254819D02*
X176333333Y-110778628D01*
X176095238Y-111254819D02*
X176095238Y-110254819D01*
X176095238Y-110254819D02*
X176476190Y-110254819D01*
X176476190Y-110254819D02*
X176571428Y-110302438D01*
X176571428Y-110302438D02*
X176619047Y-110350057D01*
X176619047Y-110350057D02*
X176666666Y-110445295D01*
X176666666Y-110445295D02*
X176666666Y-110588152D01*
X176666666Y-110588152D02*
X176619047Y-110683390D01*
X176619047Y-110683390D02*
X176571428Y-110731009D01*
X176571428Y-110731009D02*
X176476190Y-110778628D01*
X176476190Y-110778628D02*
X176095238Y-110778628D01*
X177095238Y-110731009D02*
X177428571Y-110731009D01*
X177571428Y-111254819D02*
X177095238Y-111254819D01*
X177095238Y-111254819D02*
X177095238Y-110254819D01*
X177095238Y-110254819D02*
X177571428Y-110254819D01*
X178333333Y-110731009D02*
X178000000Y-110731009D01*
X178000000Y-111254819D02*
X178000000Y-110254819D01*
X178000000Y-110254819D02*
X178476190Y-110254819D01*
X179000000Y-110254819D02*
X179000000Y-110492914D01*
X178761905Y-110397676D02*
X179000000Y-110492914D01*
X179000000Y-110492914D02*
X179238095Y-110397676D01*
X178857143Y-110683390D02*
X179000000Y-110492914D01*
X179000000Y-110492914D02*
X179142857Y-110683390D01*
X179761905Y-110254819D02*
X179761905Y-110492914D01*
X179523810Y-110397676D02*
X179761905Y-110492914D01*
X179761905Y-110492914D02*
X180000000Y-110397676D01*
X179619048Y-110683390D02*
X179761905Y-110492914D01*
X179761905Y-110492914D02*
X179904762Y-110683390D01*
X233229819Y-85833333D02*
X233944104Y-85833333D01*
X233944104Y-85833333D02*
X234086961Y-85880952D01*
X234086961Y-85880952D02*
X234182200Y-85976190D01*
X234182200Y-85976190D02*
X234229819Y-86119047D01*
X234229819Y-86119047D02*
X234229819Y-86214285D01*
X233229819Y-84928571D02*
X233229819Y-85119047D01*
X233229819Y-85119047D02*
X233277438Y-85214285D01*
X233277438Y-85214285D02*
X233325057Y-85261904D01*
X233325057Y-85261904D02*
X233467914Y-85357142D01*
X233467914Y-85357142D02*
X233658390Y-85404761D01*
X233658390Y-85404761D02*
X234039342Y-85404761D01*
X234039342Y-85404761D02*
X234134580Y-85357142D01*
X234134580Y-85357142D02*
X234182200Y-85309523D01*
X234182200Y-85309523D02*
X234229819Y-85214285D01*
X234229819Y-85214285D02*
X234229819Y-85023809D01*
X234229819Y-85023809D02*
X234182200Y-84928571D01*
X234182200Y-84928571D02*
X234134580Y-84880952D01*
X234134580Y-84880952D02*
X234039342Y-84833333D01*
X234039342Y-84833333D02*
X233801247Y-84833333D01*
X233801247Y-84833333D02*
X233706009Y-84880952D01*
X233706009Y-84880952D02*
X233658390Y-84928571D01*
X233658390Y-84928571D02*
X233610771Y-85023809D01*
X233610771Y-85023809D02*
X233610771Y-85214285D01*
X233610771Y-85214285D02*
X233658390Y-85309523D01*
X233658390Y-85309523D02*
X233706009Y-85357142D01*
X233706009Y-85357142D02*
X233801247Y-85404761D01*
X184896666Y-104844819D02*
X184896666Y-105559104D01*
X184896666Y-105559104D02*
X184849047Y-105701961D01*
X184849047Y-105701961D02*
X184753809Y-105797200D01*
X184753809Y-105797200D02*
X184610952Y-105844819D01*
X184610952Y-105844819D02*
X184515714Y-105844819D01*
X185896666Y-105844819D02*
X185325238Y-105844819D01*
X185610952Y-105844819D02*
X185610952Y-104844819D01*
X185610952Y-104844819D02*
X185515714Y-104987676D01*
X185515714Y-104987676D02*
X185420476Y-105082914D01*
X185420476Y-105082914D02*
X185325238Y-105130533D01*
X233284819Y-93333333D02*
X233999104Y-93333333D01*
X233999104Y-93333333D02*
X234141961Y-93380952D01*
X234141961Y-93380952D02*
X234237200Y-93476190D01*
X234237200Y-93476190D02*
X234284819Y-93619047D01*
X234284819Y-93619047D02*
X234284819Y-93714285D01*
X233713390Y-92714285D02*
X233665771Y-92809523D01*
X233665771Y-92809523D02*
X233618152Y-92857142D01*
X233618152Y-92857142D02*
X233522914Y-92904761D01*
X233522914Y-92904761D02*
X233475295Y-92904761D01*
X233475295Y-92904761D02*
X233380057Y-92857142D01*
X233380057Y-92857142D02*
X233332438Y-92809523D01*
X233332438Y-92809523D02*
X233284819Y-92714285D01*
X233284819Y-92714285D02*
X233284819Y-92523809D01*
X233284819Y-92523809D02*
X233332438Y-92428571D01*
X233332438Y-92428571D02*
X233380057Y-92380952D01*
X233380057Y-92380952D02*
X233475295Y-92333333D01*
X233475295Y-92333333D02*
X233522914Y-92333333D01*
X233522914Y-92333333D02*
X233618152Y-92380952D01*
X233618152Y-92380952D02*
X233665771Y-92428571D01*
X233665771Y-92428571D02*
X233713390Y-92523809D01*
X233713390Y-92523809D02*
X233713390Y-92714285D01*
X233713390Y-92714285D02*
X233761009Y-92809523D01*
X233761009Y-92809523D02*
X233808628Y-92857142D01*
X233808628Y-92857142D02*
X233903866Y-92904761D01*
X233903866Y-92904761D02*
X234094342Y-92904761D01*
X234094342Y-92904761D02*
X234189580Y-92857142D01*
X234189580Y-92857142D02*
X234237200Y-92809523D01*
X234237200Y-92809523D02*
X234284819Y-92714285D01*
X234284819Y-92714285D02*
X234284819Y-92523809D01*
X234284819Y-92523809D02*
X234237200Y-92428571D01*
X234237200Y-92428571D02*
X234189580Y-92380952D01*
X234189580Y-92380952D02*
X234094342Y-92333333D01*
X234094342Y-92333333D02*
X233903866Y-92333333D01*
X233903866Y-92333333D02*
X233808628Y-92380952D01*
X233808628Y-92380952D02*
X233761009Y-92428571D01*
X233761009Y-92428571D02*
X233713390Y-92523809D01*
X194183095Y-59129819D02*
X194183095Y-59939342D01*
X194183095Y-59939342D02*
X194230714Y-60034580D01*
X194230714Y-60034580D02*
X194278333Y-60082200D01*
X194278333Y-60082200D02*
X194373571Y-60129819D01*
X194373571Y-60129819D02*
X194564047Y-60129819D01*
X194564047Y-60129819D02*
X194659285Y-60082200D01*
X194659285Y-60082200D02*
X194706904Y-60034580D01*
X194706904Y-60034580D02*
X194754523Y-59939342D01*
X194754523Y-59939342D02*
X194754523Y-59129819D01*
X195754523Y-60129819D02*
X195183095Y-60129819D01*
X195468809Y-60129819D02*
X195468809Y-59129819D01*
X195468809Y-59129819D02*
X195373571Y-59272676D01*
X195373571Y-59272676D02*
X195278333Y-59367914D01*
X195278333Y-59367914D02*
X195183095Y-59415533D01*
X232784819Y-63333333D02*
X233499104Y-63333333D01*
X233499104Y-63333333D02*
X233641961Y-63380952D01*
X233641961Y-63380952D02*
X233737200Y-63476190D01*
X233737200Y-63476190D02*
X233784819Y-63619047D01*
X233784819Y-63619047D02*
X233784819Y-63714285D01*
X233784819Y-62809523D02*
X233784819Y-62619047D01*
X233784819Y-62619047D02*
X233737200Y-62523809D01*
X233737200Y-62523809D02*
X233689580Y-62476190D01*
X233689580Y-62476190D02*
X233546723Y-62380952D01*
X233546723Y-62380952D02*
X233356247Y-62333333D01*
X233356247Y-62333333D02*
X232975295Y-62333333D01*
X232975295Y-62333333D02*
X232880057Y-62380952D01*
X232880057Y-62380952D02*
X232832438Y-62428571D01*
X232832438Y-62428571D02*
X232784819Y-62523809D01*
X232784819Y-62523809D02*
X232784819Y-62714285D01*
X232784819Y-62714285D02*
X232832438Y-62809523D01*
X232832438Y-62809523D02*
X232880057Y-62857142D01*
X232880057Y-62857142D02*
X232975295Y-62904761D01*
X232975295Y-62904761D02*
X233213390Y-62904761D01*
X233213390Y-62904761D02*
X233308628Y-62857142D01*
X233308628Y-62857142D02*
X233356247Y-62809523D01*
X233356247Y-62809523D02*
X233403866Y-62714285D01*
X233403866Y-62714285D02*
X233403866Y-62523809D01*
X233403866Y-62523809D02*
X233356247Y-62428571D01*
X233356247Y-62428571D02*
X233308628Y-62380952D01*
X233308628Y-62380952D02*
X233213390Y-62333333D01*
X233229819Y-97333333D02*
X233944104Y-97333333D01*
X233944104Y-97333333D02*
X234086961Y-97380952D01*
X234086961Y-97380952D02*
X234182200Y-97476190D01*
X234182200Y-97476190D02*
X234229819Y-97619047D01*
X234229819Y-97619047D02*
X234229819Y-97714285D01*
X233229819Y-96952380D02*
X233229819Y-96285714D01*
X233229819Y-96285714D02*
X234229819Y-96714285D01*
X188784819Y-63333333D02*
X189499104Y-63333333D01*
X189499104Y-63333333D02*
X189641961Y-63380952D01*
X189641961Y-63380952D02*
X189737200Y-63476190D01*
X189737200Y-63476190D02*
X189784819Y-63619047D01*
X189784819Y-63619047D02*
X189784819Y-63714285D01*
X189118152Y-62428571D02*
X189784819Y-62428571D01*
X188737200Y-62666666D02*
X189451485Y-62904761D01*
X189451485Y-62904761D02*
X189451485Y-62285714D01*
X233229819Y-89533333D02*
X233944104Y-89533333D01*
X233944104Y-89533333D02*
X234086961Y-89580952D01*
X234086961Y-89580952D02*
X234182200Y-89676190D01*
X234182200Y-89676190D02*
X234229819Y-89819047D01*
X234229819Y-89819047D02*
X234229819Y-89914285D01*
X233229819Y-88580952D02*
X233229819Y-89057142D01*
X233229819Y-89057142D02*
X233706009Y-89104761D01*
X233706009Y-89104761D02*
X233658390Y-89057142D01*
X233658390Y-89057142D02*
X233610771Y-88961904D01*
X233610771Y-88961904D02*
X233610771Y-88723809D01*
X233610771Y-88723809D02*
X233658390Y-88628571D01*
X233658390Y-88628571D02*
X233706009Y-88580952D01*
X233706009Y-88580952D02*
X233801247Y-88533333D01*
X233801247Y-88533333D02*
X234039342Y-88533333D01*
X234039342Y-88533333D02*
X234134580Y-88580952D01*
X234134580Y-88580952D02*
X234182200Y-88628571D01*
X234182200Y-88628571D02*
X234229819Y-88723809D01*
X234229819Y-88723809D02*
X234229819Y-88961904D01*
X234229819Y-88961904D02*
X234182200Y-89057142D01*
X234182200Y-89057142D02*
X234134580Y-89104761D01*
D11*
%TO.C,J6*%
X225035000Y-84170000D02*
X225035000Y-86830000D01*
X230175000Y-84170000D02*
X225035000Y-84170000D01*
X230175000Y-84170000D02*
X230175000Y-86830000D01*
X230175000Y-86830000D02*
X225035000Y-86830000D01*
X231445000Y-84170000D02*
X232775000Y-84170000D01*
X232775000Y-84170000D02*
X232775000Y-85500000D01*
%TO.C,J1*%
X182630000Y-101350000D02*
X182630000Y-93670000D01*
X182630000Y-103950000D02*
X182630000Y-102620000D01*
X183960000Y-103950000D02*
X182630000Y-103950000D01*
X185230000Y-101350000D02*
X182630000Y-101350000D01*
X185230000Y-103950000D02*
X185230000Y-101350000D01*
X187830000Y-93670000D02*
X182630000Y-93670000D01*
X187830000Y-103950000D02*
X185230000Y-103950000D01*
X187830000Y-103950000D02*
X187830000Y-93670000D01*
%TO.C,J8*%
X225090000Y-91670000D02*
X225090000Y-94330000D01*
X230230000Y-91670000D02*
X225090000Y-91670000D01*
X230230000Y-91670000D02*
X230230000Y-94330000D01*
X230230000Y-94330000D02*
X225090000Y-94330000D01*
X231500000Y-91670000D02*
X232830000Y-91670000D01*
X232830000Y-91670000D02*
X232830000Y-93000000D01*
D12*
%TO.C,U1*%
X192020000Y-61560000D02*
X203089000Y-61560000D01*
X192020000Y-61560000D02*
X220530000Y-61560000D01*
X192020000Y-112510000D02*
X192020000Y-61560000D01*
X192020000Y-112510000D02*
X192020000Y-61560000D01*
X192020000Y-112510000D02*
X197390000Y-112510000D01*
X197390000Y-112510000D02*
X215080000Y-112510000D01*
X203089000Y-61560000D02*
X209800000Y-61560000D01*
X209800000Y-61560000D02*
X220530000Y-61560000D01*
X215080000Y-112510000D02*
X220530000Y-112510000D01*
X220530000Y-61560000D02*
X220530000Y-112510000D01*
X220530000Y-61560000D02*
X220530000Y-112510000D01*
X220530000Y-112510000D02*
X192020000Y-112510000D01*
D13*
X191550000Y-71520000D02*
G75*
G02*
X191350000Y-71520000I-100000J0D01*
G01*
X191350000Y-71520000D02*
G75*
G02*
X191550000Y-71520000I100000J0D01*
G01*
D11*
%TO.C,J9*%
X224590000Y-61670000D02*
X224590000Y-64330000D01*
X229730000Y-61670000D02*
X224590000Y-61670000D01*
X229730000Y-61670000D02*
X229730000Y-64330000D01*
X229730000Y-64330000D02*
X224590000Y-64330000D01*
X231000000Y-61670000D02*
X232330000Y-61670000D01*
X232330000Y-61670000D02*
X232330000Y-63000000D01*
%TO.C,J7*%
X225035000Y-95670000D02*
X225035000Y-98330000D01*
X230175000Y-95670000D02*
X225035000Y-95670000D01*
X230175000Y-95670000D02*
X230175000Y-98330000D01*
X230175000Y-98330000D02*
X225035000Y-98330000D01*
X231445000Y-95670000D02*
X232775000Y-95670000D01*
X232775000Y-95670000D02*
X232775000Y-97000000D01*
%TO.C,J4*%
X178050000Y-61670000D02*
X178050000Y-64330000D01*
X185730000Y-61670000D02*
X178050000Y-61670000D01*
X185730000Y-61670000D02*
X185730000Y-64330000D01*
X185730000Y-64330000D02*
X178050000Y-64330000D01*
X187000000Y-61670000D02*
X188330000Y-61670000D01*
X188330000Y-61670000D02*
X188330000Y-63000000D01*
%TO.C,J5*%
X225035000Y-87870000D02*
X225035000Y-90530000D01*
X230175000Y-87870000D02*
X225035000Y-87870000D01*
X230175000Y-87870000D02*
X230175000Y-90530000D01*
X230175000Y-90530000D02*
X225035000Y-90530000D01*
X231445000Y-87870000D02*
X232775000Y-87870000D01*
X232775000Y-87870000D02*
X232775000Y-89200000D01*
%TD*%
M02*
