%TF.GenerationSoftware,KiCad,Pcbnew,8.0.5*%
%TF.CreationDate,2024-09-12T11:42:49-05:00*%
%TF.ProjectId,avion,6176696f-6e2e-46b6-9963-61645f706362,rev?*%
%TF.SameCoordinates,Original*%
%TF.FileFunction,Copper,L2,Bot*%
%TF.FilePolarity,Positive*%
%FSLAX46Y46*%
G04 Gerber Fmt 4.6, Leading zero omitted, Abs format (unit mm)*
G04 Created by KiCad (PCBNEW 8.0.5) date 2024-09-12 11:42:49*
%MOMM*%
%LPD*%
G01*
G04 APERTURE LIST*
%TA.AperFunction,ComponentPad*%
%ADD10R,1.700000X1.700000*%
%TD*%
%TA.AperFunction,ComponentPad*%
%ADD11O,1.700000X1.700000*%
%TD*%
%TA.AperFunction,ComponentPad*%
%ADD12R,2.000000X2.000000*%
%TD*%
%TA.AperFunction,ComponentPad*%
%ADD13C,2.000000*%
%TD*%
%TA.AperFunction,ViaPad*%
%ADD14C,1.300000*%
%TD*%
%TA.AperFunction,ViaPad*%
%ADD15C,1.100000*%
%TD*%
%TA.AperFunction,Conductor*%
%ADD16C,0.600000*%
%TD*%
%TA.AperFunction,Conductor*%
%ADD17C,1.000000*%
%TD*%
G04 APERTURE END LIST*
D10*
%TO.P,J6,1,Pin_1*%
%TO.N,GND*%
X231445000Y-85500000D03*
D11*
%TO.P,J6,2,Pin_2*%
%TO.N,+5V*%
X228905000Y-85500000D03*
%TO.P,J6,3,Pin_3*%
%TO.N,/cola*%
X226365000Y-85500000D03*
%TD*%
D10*
%TO.P,J1,1,Pin_1*%
%TO.N,+3.3V*%
X183960000Y-102620000D03*
D11*
%TO.P,J1,2,Pin_2*%
%TO.N,GND*%
X186500000Y-102620000D03*
%TO.P,J1,3,Pin_3*%
%TO.N,/CSN*%
X183960000Y-100080000D03*
%TO.P,J1,4,Pin_4*%
%TO.N,/CE*%
X186500000Y-100080000D03*
%TO.P,J1,5,Pin_5*%
%TO.N,/MOSI*%
X183960000Y-97540000D03*
%TO.P,J1,6,Pin_6*%
%TO.N,/SCK*%
X186500000Y-97540000D03*
%TO.P,J1,7,Pin_7*%
%TO.N,unconnected-(J1-Pin_7-Pad7)*%
X183960000Y-95000000D03*
%TO.P,J1,8,Pin_8*%
%TO.N,/MISO*%
X186500000Y-95000000D03*
%TD*%
D10*
%TO.P,J8,1,Pin_1*%
%TO.N,GND*%
X231500000Y-93000000D03*
D11*
%TO.P,J8,2,Pin_2*%
%TO.N,+5V*%
X228960000Y-93000000D03*
%TO.P,J8,3,Pin_3*%
%TO.N,/ala der*%
X226420000Y-93000000D03*
%TD*%
D12*
%TO.P,U1,1,3V3*%
%TO.N,+3.3V*%
X193600000Y-71520000D03*
D13*
%TO.P,U1,2,GND*%
%TO.N,GND*%
X193600000Y-74060000D03*
%TO.P,U1,3,D15*%
%TO.N,/ESC(motor)*%
X193600000Y-76600000D03*
%TO.P,U1,4,D2*%
%TO.N,unconnected-(U1-D2-Pad4)*%
X193600000Y-79140000D03*
%TO.P,U1,5,D4*%
%TO.N,unconnected-(U1-D4-Pad5)*%
X193600000Y-81680000D03*
%TO.P,U1,6,RX2*%
%TO.N,unconnected-(U1-RX2-Pad6)*%
X193600000Y-84220000D03*
%TO.P,U1,7,TX2*%
%TO.N,unconnected-(U1-TX2-Pad7)*%
X193600000Y-86760000D03*
%TO.P,U1,8,D5*%
%TO.N,/scl*%
X193600000Y-89300000D03*
%TO.P,U1,9,D18*%
%TO.N,/sda*%
X193600000Y-91840000D03*
%TO.P,U1,10,D19*%
%TO.N,/CSN*%
X193600000Y-94380000D03*
%TO.P,U1,11,D21*%
%TO.N,unconnected-(U1-D21-Pad11)*%
X193600000Y-96920000D03*
%TO.P,U1,12,RX0*%
%TO.N,unconnected-(U1-RX0-Pad12)*%
X193600000Y-99460000D03*
%TO.P,U1,13,TX0*%
%TO.N,unconnected-(U1-TX0-Pad13)*%
X193600000Y-102000000D03*
%TO.P,U1,14,D22*%
%TO.N,unconnected-(U1-D22-Pad14)*%
X193600000Y-104540000D03*
%TO.P,U1,15,D23*%
%TO.N,unconnected-(U1-D23-Pad15)*%
X193600000Y-107080000D03*
%TO.P,U1,16,EN*%
%TO.N,unconnected-(U1-EN-Pad16)*%
X219000000Y-107080000D03*
%TO.P,U1,17,VP*%
%TO.N,unconnected-(U1-VP-Pad17)*%
X219000000Y-104540000D03*
%TO.P,U1,18,VN*%
%TO.N,unconnected-(U1-VN-Pad18)*%
X219000000Y-102000000D03*
%TO.P,U1,19,D34*%
%TO.N,/CE*%
X219000000Y-99460000D03*
%TO.P,U1,20,D35*%
%TO.N,unconnected-(U1-D35-Pad20)*%
X219000000Y-96920000D03*
%TO.P,U1,21,D32*%
%TO.N,/ala izq*%
X219000000Y-94380000D03*
%TO.P,U1,22,D33*%
%TO.N,/ala der*%
X219000000Y-91840000D03*
%TO.P,U1,23,D25*%
%TO.N,/sobra*%
X219000000Y-89300000D03*
%TO.P,U1,24,D26*%
%TO.N,/cola*%
X219000000Y-86760000D03*
%TO.P,U1,25,D27*%
%TO.N,unconnected-(U1-D27-Pad25)*%
X219000000Y-84220000D03*
%TO.P,U1,26,D14*%
%TO.N,/SCK*%
X219000000Y-81680000D03*
%TO.P,U1,27,D12*%
%TO.N,/MISO*%
X219000000Y-79140000D03*
%TO.P,U1,28,D13*%
%TO.N,/MOSI*%
X219000000Y-76600000D03*
%TO.P,U1,29,GND*%
%TO.N,GND*%
X219000000Y-74060000D03*
%TO.P,U1,30,VIN*%
%TO.N,+5V*%
X219000000Y-71520000D03*
%TD*%
D10*
%TO.P,J9,1,Pin_1*%
%TO.N,GND*%
X231000000Y-63000000D03*
D11*
%TO.P,J9,2,Pin_2*%
%TO.N,+5V*%
X228460000Y-63000000D03*
%TO.P,J9,3,Pin_3*%
%TO.N,/ESC(motor)*%
X225920000Y-63000000D03*
%TD*%
D10*
%TO.P,J7,1,Pin_1*%
%TO.N,GND*%
X231445000Y-97000000D03*
D11*
%TO.P,J7,2,Pin_2*%
%TO.N,+5V*%
X228905000Y-97000000D03*
%TO.P,J7,3,Pin_3*%
%TO.N,/ala izq*%
X226365000Y-97000000D03*
%TD*%
D10*
%TO.P,J4,1,Pin_1*%
%TO.N,+5V*%
X187000000Y-63000000D03*
D11*
%TO.P,J4,2,Pin_2*%
%TO.N,GND*%
X184460000Y-63000000D03*
%TO.P,J4,3,Pin_3*%
%TO.N,/scl*%
X181920000Y-63000000D03*
%TO.P,J4,4,Pin_4*%
%TO.N,/sda*%
X179380000Y-63000000D03*
%TD*%
D10*
%TO.P,J5,1,Pin_1*%
%TO.N,GND*%
X231445000Y-89200000D03*
D11*
%TO.P,J5,2,Pin_2*%
%TO.N,+5V*%
X228905000Y-89200000D03*
%TO.P,J5,3,Pin_3*%
%TO.N,/sobra*%
X226365000Y-89200000D03*
%TD*%
D14*
%TO.N,GND*%
X223500000Y-81000000D03*
X205000000Y-70500000D03*
X229500000Y-72500000D03*
X208000000Y-73500000D03*
%TO.N,+3.3V*%
X187000000Y-78500000D03*
X187000000Y-88000000D03*
D15*
%TO.N,/MOSI*%
X181000000Y-85500000D03*
X198500000Y-73500000D03*
X178000000Y-68500000D03*
X181000000Y-97500000D03*
X198500000Y-79000000D03*
X184000000Y-68500000D03*
%TD*%
D16*
%TO.N,/MISO*%
X215500000Y-114500000D02*
X191500000Y-114500000D01*
X219000000Y-79140000D02*
X215500000Y-82640000D01*
X191000000Y-95000000D02*
X186500000Y-95000000D01*
X215500000Y-82640000D02*
X215500000Y-114500000D01*
X191000000Y-114000000D02*
X191000000Y-95000000D01*
X191500000Y-114500000D02*
X191000000Y-114000000D01*
%TO.N,/CE*%
X224000000Y-101500000D02*
X221960000Y-99460000D01*
X186500000Y-100080000D02*
X189000000Y-100080000D01*
X189000000Y-100080000D02*
X189000000Y-117700000D01*
X189000000Y-117700000D02*
X224000000Y-117700000D01*
X221960000Y-99460000D02*
X219000000Y-99460000D01*
X224000000Y-117700000D02*
X224000000Y-101500000D01*
%TO.N,/SCK*%
X217000000Y-116000000D02*
X216500000Y-116500000D01*
X217000000Y-109140862D02*
X216480000Y-109660862D01*
X216480000Y-111359138D02*
X217000000Y-111879138D01*
X190500000Y-116500000D02*
X190000000Y-116000000D01*
X190000000Y-116000000D02*
X190000000Y-97540000D01*
X216480000Y-109660862D02*
X216480000Y-111359138D01*
X217000000Y-83680000D02*
X217000000Y-109140862D01*
X217000000Y-111879138D02*
X217000000Y-116000000D01*
X219000000Y-81680000D02*
X217000000Y-83680000D01*
X190000000Y-97540000D02*
X186500000Y-97540000D01*
X216500000Y-116500000D02*
X190500000Y-116500000D01*
%TO.N,/CSN*%
X179580000Y-100080000D02*
X183960000Y-100080000D01*
X179580000Y-91000000D02*
X179580000Y-100080000D01*
X190220000Y-91000000D02*
X179580000Y-91000000D01*
X193600000Y-94380000D02*
X190220000Y-91000000D01*
D17*
%TO.N,+3.3V*%
X187000000Y-88000000D02*
X178000000Y-88000000D01*
X187000000Y-78500000D02*
X187000000Y-71540000D01*
X186980000Y-71520000D02*
X193600000Y-71520000D01*
X178000000Y-88000000D02*
X178000000Y-107000000D01*
X183960000Y-107000000D02*
X183960000Y-102620000D01*
X178000000Y-107000000D02*
X183960000Y-107000000D01*
X187000000Y-71540000D02*
X186980000Y-71520000D01*
D16*
%TO.N,/MOSI*%
X183920000Y-97500000D02*
X183960000Y-97540000D01*
X184000000Y-68500000D02*
X198500000Y-68500000D01*
X177000000Y-80500000D02*
X181000000Y-84500000D01*
X177000000Y-69500000D02*
X177000000Y-80500000D01*
X178000000Y-68500000D02*
X177000000Y-69500000D01*
X198500000Y-68500000D02*
X198500000Y-73500000D01*
X198500000Y-79000000D02*
X216600000Y-79000000D01*
X216600000Y-79000000D02*
X219000000Y-76600000D01*
X181000000Y-97500000D02*
X183920000Y-97500000D01*
X181000000Y-84500000D02*
X181000000Y-85500000D01*
%TO.N,/sda*%
X179500000Y-77740000D02*
X179500000Y-63120000D01*
X193600000Y-91840000D02*
X179500000Y-77740000D01*
X179500000Y-63120000D02*
X179380000Y-63000000D01*
%TO.N,/scl*%
X193600000Y-89300000D02*
X182000000Y-77700000D01*
X182000000Y-77700000D02*
X182000000Y-63080000D01*
X182000000Y-63080000D02*
X181920000Y-63000000D01*
D17*
%TO.N,+5V*%
X228905000Y-89200000D02*
X228905000Y-92945000D01*
X187000000Y-61000000D02*
X187000000Y-63000000D01*
X219940000Y-71520000D02*
X219000000Y-71520000D01*
X228460000Y-63000000D02*
X219940000Y-71520000D01*
X187500000Y-60500000D02*
X187000000Y-61000000D01*
X228905000Y-81425000D02*
X228905000Y-85500000D01*
X228460000Y-63000000D02*
X225960000Y-60500000D01*
X228905000Y-85500000D02*
X228905000Y-89200000D01*
X228905000Y-92945000D02*
X228960000Y-93000000D01*
X219000000Y-71520000D02*
X228905000Y-81425000D01*
X228960000Y-96945000D02*
X228905000Y-97000000D01*
X228960000Y-93000000D02*
X228960000Y-96945000D01*
X225960000Y-60500000D02*
X187500000Y-60500000D01*
D16*
%TO.N,/ESC(motor)*%
X212890000Y-65610000D02*
X201900000Y-76600000D01*
X201900000Y-76600000D02*
X193600000Y-76600000D01*
X223310000Y-65610000D02*
X212890000Y-65610000D01*
X225920000Y-63000000D02*
X223310000Y-65610000D01*
%TO.N,/ala izq*%
X221380000Y-94380000D02*
X219000000Y-94380000D01*
X226365000Y-97000000D02*
X224000000Y-97000000D01*
X224000000Y-97000000D02*
X221380000Y-94380000D01*
%TO.N,/cola*%
X220260000Y-85500000D02*
X219000000Y-86760000D01*
X226365000Y-85500000D02*
X220260000Y-85500000D01*
%TO.N,/sobra*%
X226365000Y-89200000D02*
X219100000Y-89200000D01*
X219100000Y-89200000D02*
X219000000Y-89300000D01*
%TO.N,/ala der*%
X224000000Y-93000000D02*
X222840000Y-91840000D01*
X222840000Y-91840000D02*
X219000000Y-91840000D01*
X226420000Y-93000000D02*
X224000000Y-93000000D01*
%TD*%
%TA.AperFunction,Conductor*%
%TO.N,GND*%
G36*
X235442539Y-58520185D02*
G01*
X235488294Y-58572989D01*
X235499500Y-58624500D01*
X235499500Y-117875500D01*
X235479815Y-117942539D01*
X235427011Y-117988294D01*
X235375500Y-117999500D01*
X225009662Y-117999500D01*
X224942623Y-117979815D01*
X224896868Y-117927011D01*
X224886924Y-117857853D01*
X224888045Y-117851308D01*
X224900500Y-117788693D01*
X224900500Y-101411308D01*
X224900499Y-101411304D01*
X224888854Y-101352759D01*
X224865895Y-101237334D01*
X224800339Y-101079071D01*
X224798695Y-101074474D01*
X224788579Y-101059335D01*
X224749057Y-101000185D01*
X224699465Y-100925966D01*
X224638275Y-100864776D01*
X224574035Y-100800536D01*
X224133999Y-100360500D01*
X222534038Y-98760537D01*
X222534034Y-98760533D01*
X222474961Y-98721064D01*
X222474960Y-98721063D01*
X222386544Y-98661985D01*
X222386542Y-98661984D01*
X222304607Y-98628046D01*
X222304606Y-98628046D01*
X222222666Y-98594105D01*
X222222658Y-98594103D01*
X222048696Y-98559500D01*
X222048692Y-98559500D01*
X222048691Y-98559500D01*
X220392862Y-98559500D01*
X220325823Y-98539815D01*
X220298572Y-98516032D01*
X220228484Y-98433970D01*
X220135224Y-98324776D01*
X220087819Y-98284289D01*
X220049627Y-98225784D01*
X220049128Y-98155916D01*
X220086482Y-98096870D01*
X220087756Y-98095764D01*
X220135224Y-98055224D01*
X220298836Y-97863659D01*
X220430466Y-97648859D01*
X220526873Y-97416111D01*
X220585683Y-97171148D01*
X220605449Y-96920000D01*
X220585683Y-96668852D01*
X220526873Y-96423889D01*
X220430466Y-96191140D01*
X220298839Y-95976346D01*
X220298838Y-95976343D01*
X220135224Y-95784776D01*
X220131421Y-95781528D01*
X220087819Y-95744289D01*
X220049627Y-95685784D01*
X220049128Y-95615916D01*
X220086482Y-95556870D01*
X220087756Y-95555764D01*
X220135224Y-95515224D01*
X220298572Y-95323967D01*
X220357079Y-95285775D01*
X220392862Y-95280500D01*
X220955638Y-95280500D01*
X221022677Y-95300185D01*
X221043319Y-95316819D01*
X223300536Y-97574035D01*
X223425965Y-97699464D01*
X223573453Y-97798013D01*
X223621452Y-97817895D01*
X223737334Y-97865895D01*
X223878460Y-97893966D01*
X223911304Y-97900499D01*
X223911308Y-97900500D01*
X223911309Y-97900500D01*
X224088692Y-97900500D01*
X225168049Y-97900500D01*
X225235088Y-97920185D01*
X225259279Y-97940517D01*
X225379238Y-98070827D01*
X225379242Y-98070830D01*
X225568924Y-98218466D01*
X225568930Y-98218470D01*
X225568933Y-98218472D01*
X225780344Y-98332882D01*
X225780347Y-98332883D01*
X226007699Y-98410933D01*
X226007701Y-98410933D01*
X226007703Y-98410934D01*
X226244808Y-98450500D01*
X226244809Y-98450500D01*
X226485191Y-98450500D01*
X226485192Y-98450500D01*
X226722297Y-98410934D01*
X226949656Y-98332882D01*
X227161067Y-98218472D01*
X227350764Y-98070825D01*
X227513571Y-97893969D01*
X227531193Y-97866995D01*
X227584337Y-97821641D01*
X227653568Y-97812217D01*
X227716904Y-97841718D01*
X227738804Y-97866992D01*
X227756429Y-97893969D01*
X227919236Y-98070825D01*
X227919239Y-98070827D01*
X227919242Y-98070830D01*
X228108924Y-98218466D01*
X228108930Y-98218470D01*
X228108933Y-98218472D01*
X228320344Y-98332882D01*
X228320347Y-98332883D01*
X228547699Y-98410933D01*
X228547701Y-98410933D01*
X228547703Y-98410934D01*
X228784808Y-98450500D01*
X228784809Y-98450500D01*
X229025191Y-98450500D01*
X229025192Y-98450500D01*
X229262297Y-98410934D01*
X229489656Y-98332882D01*
X229701067Y-98218472D01*
X229890764Y-98070825D01*
X230053571Y-97893969D01*
X230185049Y-97692728D01*
X230281610Y-97472591D01*
X230340620Y-97239563D01*
X230360471Y-97000000D01*
X230340620Y-96760437D01*
X230281610Y-96527409D01*
X230185049Y-96307272D01*
X230179403Y-96298630D01*
X230080691Y-96147539D01*
X230060504Y-96080650D01*
X230060500Y-96079718D01*
X230060500Y-93994573D01*
X230080185Y-93927534D01*
X230093270Y-93910590D01*
X230108571Y-93893969D01*
X230240049Y-93692728D01*
X230336610Y-93472591D01*
X230395620Y-93239563D01*
X230406356Y-93110000D01*
X230415471Y-93000005D01*
X230415471Y-92999994D01*
X230395620Y-92760440D01*
X230395620Y-92760437D01*
X230336610Y-92527409D01*
X230240049Y-92307272D01*
X230229999Y-92291890D01*
X230181891Y-92218256D01*
X230108571Y-92106031D01*
X230108569Y-92106029D01*
X230108568Y-92106027D01*
X230108567Y-92106026D01*
X230038270Y-92029662D01*
X230007348Y-91967008D01*
X230005500Y-91945680D01*
X230005500Y-90194573D01*
X230025185Y-90127534D01*
X230038270Y-90110590D01*
X230053571Y-90093969D01*
X230185049Y-89892728D01*
X230281610Y-89672591D01*
X230340620Y-89439563D01*
X230360471Y-89200000D01*
X230358778Y-89179573D01*
X230340620Y-88960440D01*
X230340620Y-88960437D01*
X230281610Y-88727409D01*
X230185049Y-88507272D01*
X230053571Y-88306031D01*
X230038268Y-88289407D01*
X230007348Y-88226752D01*
X230005500Y-88205426D01*
X230005500Y-86494573D01*
X230025185Y-86427534D01*
X230038270Y-86410590D01*
X230053571Y-86393969D01*
X230185049Y-86192728D01*
X230281610Y-85972591D01*
X230340620Y-85739563D01*
X230352660Y-85594264D01*
X230360471Y-85500005D01*
X230360471Y-85499994D01*
X230340620Y-85260440D01*
X230340620Y-85260437D01*
X230281610Y-85027409D01*
X230185049Y-84807272D01*
X230053571Y-84606031D01*
X230038268Y-84589407D01*
X230007348Y-84526752D01*
X230005500Y-84505426D01*
X230005500Y-81338389D01*
X229978402Y-81167299D01*
X229948099Y-81074036D01*
X229924873Y-81002554D01*
X229924871Y-81002551D01*
X229924871Y-81002549D01*
X229846231Y-80848211D01*
X229744414Y-80708072D01*
X221114023Y-72077681D01*
X221080538Y-72016358D01*
X221085522Y-71946666D01*
X221114023Y-71902319D01*
X224779010Y-68237332D01*
X225137631Y-67878711D01*
X229149500Y-67878711D01*
X229149500Y-68121288D01*
X229181161Y-68361785D01*
X229243947Y-68596104D01*
X229336773Y-68820205D01*
X229336776Y-68820212D01*
X229458064Y-69030289D01*
X229458066Y-69030292D01*
X229458067Y-69030293D01*
X229605733Y-69222736D01*
X229605739Y-69222743D01*
X229777256Y-69394260D01*
X229777263Y-69394266D01*
X229813475Y-69422052D01*
X229969711Y-69541936D01*
X230179788Y-69663224D01*
X230403900Y-69756054D01*
X230638211Y-69818838D01*
X230818586Y-69842584D01*
X230878711Y-69850500D01*
X230878712Y-69850500D01*
X231121289Y-69850500D01*
X231169388Y-69844167D01*
X231361789Y-69818838D01*
X231596100Y-69756054D01*
X231820212Y-69663224D01*
X232030289Y-69541936D01*
X232222738Y-69394265D01*
X232394265Y-69222738D01*
X232541936Y-69030289D01*
X232663224Y-68820212D01*
X232756054Y-68596100D01*
X232818838Y-68361789D01*
X232850500Y-68121288D01*
X232850500Y-67878712D01*
X232818838Y-67638211D01*
X232756054Y-67403900D01*
X232663224Y-67179788D01*
X232541936Y-66969711D01*
X232394265Y-66777262D01*
X232394260Y-66777256D01*
X232222743Y-66605739D01*
X232222736Y-66605733D01*
X232030293Y-66458067D01*
X232030292Y-66458066D01*
X232030289Y-66458064D01*
X231820212Y-66336776D01*
X231820205Y-66336773D01*
X231596104Y-66243947D01*
X231361785Y-66181161D01*
X231121289Y-66149500D01*
X231121288Y-66149500D01*
X230878712Y-66149500D01*
X230878711Y-66149500D01*
X230638214Y-66181161D01*
X230403895Y-66243947D01*
X230179794Y-66336773D01*
X230179785Y-66336777D01*
X229969706Y-66458067D01*
X229777263Y-66605733D01*
X229777256Y-66605739D01*
X229605739Y-66777256D01*
X229605733Y-66777263D01*
X229458067Y-66969706D01*
X229336777Y-67179785D01*
X229336773Y-67179794D01*
X229243947Y-67403895D01*
X229181161Y-67638214D01*
X229149500Y-67878711D01*
X225137631Y-67878711D01*
X228534880Y-64481461D01*
X228596201Y-64447978D01*
X228602116Y-64446841D01*
X228817297Y-64410934D01*
X229044656Y-64332882D01*
X229256067Y-64218472D01*
X229445764Y-64070825D01*
X229608571Y-63893969D01*
X229740049Y-63692728D01*
X229836610Y-63472591D01*
X229895620Y-63239563D01*
X229904442Y-63133090D01*
X229915471Y-63000005D01*
X229915471Y-62999994D01*
X229897582Y-62784112D01*
X229895620Y-62760437D01*
X229836610Y-62527409D01*
X229740049Y-62307272D01*
X229729999Y-62291890D01*
X229611582Y-62110640D01*
X229608571Y-62106031D01*
X229445764Y-61929175D01*
X229445759Y-61929171D01*
X229445757Y-61929169D01*
X229256075Y-61781533D01*
X229256069Y-61781529D01*
X229044657Y-61667118D01*
X229044652Y-61667116D01*
X228817300Y-61589066D01*
X228602149Y-61553164D01*
X228539264Y-61522713D01*
X228534878Y-61518536D01*
X226676930Y-59660588D01*
X226676928Y-59660586D01*
X226536788Y-59558768D01*
X226382445Y-59480127D01*
X226217701Y-59426598D01*
X226217699Y-59426597D01*
X226217698Y-59426597D01*
X226086271Y-59405781D01*
X226046611Y-59399500D01*
X187586611Y-59399500D01*
X187413389Y-59399500D01*
X187373728Y-59405781D01*
X187242302Y-59426597D01*
X187077552Y-59480128D01*
X186923211Y-59558768D01*
X186843256Y-59616859D01*
X186783072Y-59660586D01*
X186783070Y-59660588D01*
X186783069Y-59660588D01*
X186160588Y-60283069D01*
X186160588Y-60283070D01*
X186160586Y-60283072D01*
X186116859Y-60343256D01*
X186058768Y-60423211D01*
X185980128Y-60577552D01*
X185926597Y-60742302D01*
X185899500Y-60913389D01*
X185899500Y-61524151D01*
X185879815Y-61591190D01*
X185850987Y-61622527D01*
X185847159Y-61625463D01*
X185847159Y-61625464D01*
X185785223Y-61672989D01*
X185721718Y-61721718D01*
X185625463Y-61847160D01*
X185564956Y-61993237D01*
X185564955Y-61993239D01*
X185550106Y-62106033D01*
X185549501Y-62110636D01*
X185549500Y-62110645D01*
X185549500Y-63889363D01*
X185564953Y-64006753D01*
X185564956Y-64006762D01*
X185613901Y-64124927D01*
X185625464Y-64152841D01*
X185721718Y-64278282D01*
X185847159Y-64374536D01*
X185993238Y-64435044D01*
X186110639Y-64450500D01*
X187889360Y-64450499D01*
X187889363Y-64450499D01*
X188006753Y-64435046D01*
X188006757Y-64435044D01*
X188006762Y-64435044D01*
X188152841Y-64374536D01*
X188278282Y-64278282D01*
X188374536Y-64152841D01*
X188435044Y-64006762D01*
X188450500Y-63889361D01*
X188450499Y-62110640D01*
X188450499Y-62110639D01*
X188450499Y-62110636D01*
X188435046Y-61993246D01*
X188435044Y-61993239D01*
X188435044Y-61993238D01*
X188374536Y-61847159D01*
X188338338Y-61799985D01*
X188313145Y-61734817D01*
X188327183Y-61666373D01*
X188375997Y-61616383D01*
X188436715Y-61600500D01*
X193627671Y-61600500D01*
X193694710Y-61620185D01*
X193740465Y-61672989D01*
X193750409Y-61742147D01*
X193721384Y-61805703D01*
X193662606Y-61843477D01*
X193659803Y-61844263D01*
X193526719Y-61879923D01*
X193456112Y-61898842D01*
X193244123Y-61986650D01*
X193244109Y-61986657D01*
X193045382Y-62101392D01*
X192863338Y-62241081D01*
X192701081Y-62403338D01*
X192561392Y-62585382D01*
X192446657Y-62784109D01*
X192446650Y-62784123D01*
X192358842Y-62996112D01*
X192299453Y-63217759D01*
X192299451Y-63217770D01*
X192269500Y-63445258D01*
X192269500Y-63674741D01*
X192287600Y-63812217D01*
X192299452Y-63902238D01*
X192334514Y-64033091D01*
X192358842Y-64123887D01*
X192446650Y-64335876D01*
X192446657Y-64335890D01*
X192561392Y-64534617D01*
X192701081Y-64716661D01*
X192701089Y-64716670D01*
X192863330Y-64878911D01*
X192863338Y-64878918D01*
X193045382Y-65018607D01*
X193045385Y-65018608D01*
X193045388Y-65018611D01*
X193244112Y-65133344D01*
X193244117Y-65133346D01*
X193244123Y-65133349D01*
X193335480Y-65171190D01*
X193456113Y-65221158D01*
X193677762Y-65280548D01*
X193905266Y-65310500D01*
X193905273Y-65310500D01*
X194134727Y-65310500D01*
X194134734Y-65310500D01*
X194362238Y-65280548D01*
X194583887Y-65221158D01*
X194795888Y-65133344D01*
X194994612Y-65018611D01*
X195176661Y-64878919D01*
X195176665Y-64878914D01*
X195176670Y-64878911D01*
X195338911Y-64716670D01*
X195338914Y-64716665D01*
X195338919Y-64716661D01*
X195478611Y-64534612D01*
X195593344Y-64335888D01*
X195681158Y-64123887D01*
X195740548Y-63902238D01*
X195770500Y-63674734D01*
X195770500Y-63445266D01*
X195740548Y-63217762D01*
X195681158Y-62996113D01*
X195593344Y-62784112D01*
X195478611Y-62585388D01*
X195478608Y-62585385D01*
X195478607Y-62585382D01*
X195338918Y-62403338D01*
X195338911Y-62403330D01*
X195176670Y-62241089D01*
X195176661Y-62241081D01*
X194994617Y-62101392D01*
X194795890Y-61986657D01*
X194795876Y-61986650D01*
X194583887Y-61898842D01*
X194380234Y-61844274D01*
X194320575Y-61807910D01*
X194290046Y-61745063D01*
X194298341Y-61675688D01*
X194342826Y-61621810D01*
X194409378Y-61600535D01*
X194412329Y-61600500D01*
X218137671Y-61600500D01*
X218204710Y-61620185D01*
X218250465Y-61672989D01*
X218260409Y-61742147D01*
X218231384Y-61805703D01*
X218172606Y-61843477D01*
X218169803Y-61844263D01*
X218036719Y-61879923D01*
X217966112Y-61898842D01*
X217754123Y-61986650D01*
X217754109Y-61986657D01*
X217555382Y-62101392D01*
X217373338Y-62241081D01*
X217211081Y-62403338D01*
X217071392Y-62585382D01*
X216956657Y-62784109D01*
X216956650Y-62784123D01*
X216868842Y-62996112D01*
X216809453Y-63217759D01*
X216809451Y-63217770D01*
X216779500Y-63445258D01*
X216779500Y-63674741D01*
X216797600Y-63812217D01*
X216809452Y-63902238D01*
X216844514Y-64033091D01*
X216868842Y-64123887D01*
X216956650Y-64335876D01*
X216956657Y-64335891D01*
X217064973Y-64523500D01*
X217081446Y-64591401D01*
X217058593Y-64657427D01*
X217003672Y-64700618D01*
X216957586Y-64709500D01*
X212801303Y-64709500D01*
X212627341Y-64744103D01*
X212627329Y-64744106D01*
X212545392Y-64778045D01*
X212545393Y-64778046D01*
X212463455Y-64811985D01*
X212375040Y-64871063D01*
X212375039Y-64871064D01*
X212315961Y-64910537D01*
X212315960Y-64910538D01*
X201563319Y-75663181D01*
X201501996Y-75696666D01*
X201475638Y-75699500D01*
X194992862Y-75699500D01*
X194925823Y-75679815D01*
X194898572Y-75656032D01*
X194735224Y-75464776D01*
X194608571Y-75356604D01*
X194543656Y-75301161D01*
X194543653Y-75301160D01*
X194328859Y-75169533D01*
X194096110Y-75073126D01*
X193851151Y-75014317D01*
X193600000Y-74994551D01*
X193348848Y-75014317D01*
X193103889Y-75073126D01*
X192871140Y-75169533D01*
X192656346Y-75301160D01*
X192656343Y-75301161D01*
X192464776Y-75464776D01*
X192301161Y-75656343D01*
X192301160Y-75656346D01*
X192169533Y-75871140D01*
X192073126Y-76103889D01*
X192014317Y-76348848D01*
X191994551Y-76600000D01*
X192014317Y-76851151D01*
X192073126Y-77096110D01*
X192169533Y-77328859D01*
X192301160Y-77543653D01*
X192301161Y-77543656D01*
X192356604Y-77608571D01*
X192464776Y-77735224D01*
X192501557Y-77766638D01*
X192512179Y-77775710D01*
X192550372Y-77834217D01*
X192550870Y-77904085D01*
X192513516Y-77963131D01*
X192512179Y-77964290D01*
X192464776Y-78004776D01*
X192301161Y-78196343D01*
X192301160Y-78196346D01*
X192169533Y-78411140D01*
X192073126Y-78643889D01*
X192014317Y-78888848D01*
X191994551Y-79140000D01*
X192014317Y-79391151D01*
X192073126Y-79636110D01*
X192169533Y-79868859D01*
X192301160Y-80083653D01*
X192301161Y-80083656D01*
X192325524Y-80112181D01*
X192464776Y-80275224D01*
X192512178Y-80315709D01*
X192512179Y-80315710D01*
X192550372Y-80374217D01*
X192550870Y-80444085D01*
X192513516Y-80503131D01*
X192512179Y-80504290D01*
X192464776Y-80544776D01*
X192301161Y-80736343D01*
X192301160Y-80736346D01*
X192169533Y-80951140D01*
X192073126Y-81183889D01*
X192014317Y-81428848D01*
X191994551Y-81680000D01*
X192014317Y-81931151D01*
X192073126Y-82176110D01*
X192169533Y-82408859D01*
X192301160Y-82623653D01*
X192301161Y-82623656D01*
X192301164Y-82623659D01*
X192464776Y-82815224D01*
X192512178Y-82855709D01*
X192512179Y-82855710D01*
X192550372Y-82914217D01*
X192550870Y-82984085D01*
X192513516Y-83043131D01*
X192512179Y-83044290D01*
X192464776Y-83084776D01*
X192301161Y-83276343D01*
X192301160Y-83276346D01*
X192169533Y-83491140D01*
X192073126Y-83723889D01*
X192014317Y-83968848D01*
X191994551Y-84220000D01*
X192014317Y-84471151D01*
X192073126Y-84716110D01*
X192169533Y-84948859D01*
X192301160Y-85163653D01*
X192301161Y-85163656D01*
X192301164Y-85163659D01*
X192464776Y-85355224D01*
X192500500Y-85385735D01*
X192512179Y-85395710D01*
X192550372Y-85454217D01*
X192550870Y-85524085D01*
X192513516Y-85583131D01*
X192512179Y-85584290D01*
X192464776Y-85624776D01*
X192301161Y-85816343D01*
X192301160Y-85816346D01*
X192169533Y-86031140D01*
X192075098Y-86259129D01*
X192031257Y-86313532D01*
X191964963Y-86335597D01*
X191897264Y-86318318D01*
X191872856Y-86299357D01*
X187454341Y-81880842D01*
X184073497Y-78499997D01*
X185744723Y-78499997D01*
X185744723Y-78500002D01*
X185763793Y-78717975D01*
X185763793Y-78717979D01*
X185820422Y-78929322D01*
X185820424Y-78929326D01*
X185820425Y-78929330D01*
X185853379Y-79000000D01*
X185912897Y-79127638D01*
X185912898Y-79127639D01*
X186038402Y-79306877D01*
X186193123Y-79461598D01*
X186372361Y-79587102D01*
X186570670Y-79679575D01*
X186782023Y-79736207D01*
X186964926Y-79752208D01*
X186999998Y-79755277D01*
X187000000Y-79755277D01*
X187000002Y-79755277D01*
X187028254Y-79752805D01*
X187217977Y-79736207D01*
X187429330Y-79679575D01*
X187627639Y-79587102D01*
X187806877Y-79461598D01*
X187961598Y-79306877D01*
X188087102Y-79127639D01*
X188179575Y-78929330D01*
X188236207Y-78717977D01*
X188255277Y-78500000D01*
X188236207Y-78282023D01*
X188179575Y-78070670D01*
X188176083Y-78063181D01*
X188112118Y-77926006D01*
X188100500Y-77873602D01*
X188100500Y-72744500D01*
X188120185Y-72677461D01*
X188172989Y-72631706D01*
X188224500Y-72620500D01*
X191908798Y-72620500D01*
X191975837Y-72640185D01*
X192021592Y-72692989D01*
X192023359Y-72697048D01*
X192075462Y-72822838D01*
X192075463Y-72822839D01*
X192075464Y-72822841D01*
X192171718Y-72948282D01*
X192297159Y-73044536D01*
X192443238Y-73105044D01*
X192560639Y-73120500D01*
X194639360Y-73120499D01*
X194639363Y-73120499D01*
X194756753Y-73105046D01*
X194756757Y-73105044D01*
X194756762Y-73105044D01*
X194902841Y-73044536D01*
X195028282Y-72948282D01*
X195124536Y-72822841D01*
X195185044Y-72676762D01*
X195200500Y-72559361D01*
X195200499Y-70480640D01*
X195200499Y-70480636D01*
X195185046Y-70363246D01*
X195185044Y-70363241D01*
X195185044Y-70363238D01*
X195124536Y-70217159D01*
X195028282Y-70091718D01*
X194902841Y-69995464D01*
X194756762Y-69934956D01*
X194756760Y-69934955D01*
X194639370Y-69919501D01*
X194639367Y-69919500D01*
X194639361Y-69919500D01*
X194639354Y-69919500D01*
X192560636Y-69919500D01*
X192443246Y-69934953D01*
X192443237Y-69934956D01*
X192297160Y-69995463D01*
X192171718Y-70091718D01*
X192075462Y-70217161D01*
X192023359Y-70342952D01*
X191979518Y-70397356D01*
X191913224Y-70419421D01*
X191908798Y-70419500D01*
X187066611Y-70419500D01*
X186893389Y-70419500D01*
X186853728Y-70425781D01*
X186722302Y-70446597D01*
X186557552Y-70500128D01*
X186403211Y-70578768D01*
X186323256Y-70636859D01*
X186263072Y-70680586D01*
X186263070Y-70680588D01*
X186263069Y-70680588D01*
X186140588Y-70803069D01*
X186140588Y-70803070D01*
X186140586Y-70803072D01*
X186096859Y-70863256D01*
X186038768Y-70943211D01*
X185960128Y-71097552D01*
X185906597Y-71262302D01*
X185879500Y-71433389D01*
X185879500Y-71606610D01*
X185897973Y-71723244D01*
X185899500Y-71742642D01*
X185899500Y-77873602D01*
X185887882Y-77926006D01*
X185820427Y-78070663D01*
X185820422Y-78070677D01*
X185763793Y-78282020D01*
X185763793Y-78282024D01*
X185744723Y-78499997D01*
X184073497Y-78499997D01*
X182936819Y-77363319D01*
X182903334Y-77301996D01*
X182900500Y-77275638D01*
X182900500Y-69323108D01*
X182920185Y-69256069D01*
X182972989Y-69210314D01*
X183042147Y-69200370D01*
X183105703Y-69229395D01*
X183123449Y-69248376D01*
X183146128Y-69278407D01*
X183303698Y-69422052D01*
X183484981Y-69534298D01*
X183683802Y-69611321D01*
X183893390Y-69650500D01*
X183893392Y-69650500D01*
X184106608Y-69650500D01*
X184106610Y-69650500D01*
X184316198Y-69611321D01*
X184515019Y-69534298D01*
X184696302Y-69422052D01*
X184696302Y-69422051D01*
X184701113Y-69419073D01*
X184766391Y-69400500D01*
X197475500Y-69400500D01*
X197542539Y-69420185D01*
X197588294Y-69472989D01*
X197599500Y-69524500D01*
X197599500Y-72741776D01*
X197579815Y-72808815D01*
X197574454Y-72816503D01*
X197517633Y-72891746D01*
X197422596Y-73082605D01*
X197422596Y-73082607D01*
X197364244Y-73287689D01*
X197344571Y-73499999D01*
X197344571Y-73500000D01*
X197364244Y-73712310D01*
X197422596Y-73917392D01*
X197422596Y-73917394D01*
X197517632Y-74108253D01*
X197517634Y-74108255D01*
X197646128Y-74278407D01*
X197803698Y-74422052D01*
X197984981Y-74534298D01*
X198183802Y-74611321D01*
X198393390Y-74650500D01*
X198393392Y-74650500D01*
X198606608Y-74650500D01*
X198606610Y-74650500D01*
X198816198Y-74611321D01*
X199015019Y-74534298D01*
X199196302Y-74422052D01*
X199353872Y-74278407D01*
X199482366Y-74108255D01*
X199577405Y-73917389D01*
X199635756Y-73712310D01*
X199655429Y-73500000D01*
X199635756Y-73287690D01*
X199577405Y-73082611D01*
X199577403Y-73082606D01*
X199577403Y-73082605D01*
X199482366Y-72891746D01*
X199482366Y-72891745D01*
X199425546Y-72816503D01*
X199400854Y-72751141D01*
X199400500Y-72741776D01*
X199400500Y-68411306D01*
X199400499Y-68411304D01*
X199365896Y-68237341D01*
X199365893Y-68237332D01*
X199298016Y-68073459D01*
X199298009Y-68073446D01*
X199199464Y-67925965D01*
X199199461Y-67925961D01*
X199074038Y-67800538D01*
X199074034Y-67800535D01*
X198926553Y-67701990D01*
X198926540Y-67701983D01*
X198762667Y-67634106D01*
X198762658Y-67634103D01*
X198588694Y-67599500D01*
X198588691Y-67599500D01*
X184766391Y-67599500D01*
X184701113Y-67580927D01*
X184515019Y-67465702D01*
X184515017Y-67465701D01*
X184355475Y-67403895D01*
X184316198Y-67388679D01*
X184106610Y-67349500D01*
X183893390Y-67349500D01*
X183683802Y-67388679D01*
X183683799Y-67388679D01*
X183683799Y-67388680D01*
X183484982Y-67465701D01*
X183484980Y-67465702D01*
X183303699Y-67577947D01*
X183146127Y-67721593D01*
X183123454Y-67751618D01*
X183067345Y-67793254D01*
X182997633Y-67797945D01*
X182936451Y-67764203D01*
X182903224Y-67702739D01*
X182900500Y-67676891D01*
X182900500Y-64124927D01*
X182920185Y-64057888D01*
X182933263Y-64040952D01*
X183068571Y-63893969D01*
X183200049Y-63692728D01*
X183296610Y-63472591D01*
X183355620Y-63239563D01*
X183364442Y-63133090D01*
X183375471Y-63000005D01*
X183375471Y-62999994D01*
X183357582Y-62784112D01*
X183355620Y-62760437D01*
X183296610Y-62527409D01*
X183200049Y-62307272D01*
X183189999Y-62291890D01*
X183071582Y-62110640D01*
X183068571Y-62106031D01*
X182905764Y-61929175D01*
X182905759Y-61929171D01*
X182905757Y-61929169D01*
X182716075Y-61781533D01*
X182716069Y-61781529D01*
X182504657Y-61667118D01*
X182504652Y-61667116D01*
X182277300Y-61589066D01*
X182099468Y-61559391D01*
X182040192Y-61549500D01*
X181799808Y-61549500D01*
X181777851Y-61553164D01*
X181562699Y-61589066D01*
X181335347Y-61667116D01*
X181335342Y-61667118D01*
X181123930Y-61781529D01*
X181123924Y-61781533D01*
X180934242Y-61929169D01*
X180934239Y-61929172D01*
X180771430Y-62106029D01*
X180771429Y-62106031D01*
X180753807Y-62133003D01*
X180700660Y-62178358D01*
X180631429Y-62187780D01*
X180568093Y-62158277D01*
X180546193Y-62133003D01*
X180544154Y-62129883D01*
X180528571Y-62106031D01*
X180365764Y-61929175D01*
X180365759Y-61929171D01*
X180365757Y-61929169D01*
X180176075Y-61781533D01*
X180176069Y-61781529D01*
X179964657Y-61667118D01*
X179964652Y-61667116D01*
X179737300Y-61589066D01*
X179559468Y-61559391D01*
X179500192Y-61549500D01*
X179259808Y-61549500D01*
X179237851Y-61553164D01*
X179022699Y-61589066D01*
X178795347Y-61667116D01*
X178795342Y-61667118D01*
X178583930Y-61781529D01*
X178583924Y-61781533D01*
X178394242Y-61929169D01*
X178394239Y-61929172D01*
X178231430Y-62106029D01*
X178231427Y-62106033D01*
X178099951Y-62307270D01*
X178003389Y-62527410D01*
X177944379Y-62760440D01*
X177924529Y-62999994D01*
X177924529Y-63000005D01*
X177944379Y-63239559D01*
X178003389Y-63472589D01*
X178099951Y-63692729D01*
X178213808Y-63866998D01*
X178231429Y-63893969D01*
X178394236Y-64070825D01*
X178394239Y-64070827D01*
X178394242Y-64070830D01*
X178551662Y-64193355D01*
X178592475Y-64250065D01*
X178599500Y-64291208D01*
X178599500Y-67317412D01*
X178579815Y-67384451D01*
X178527011Y-67430206D01*
X178457853Y-67440150D01*
X178430707Y-67433039D01*
X178316202Y-67388680D01*
X178316199Y-67388679D01*
X178316198Y-67388679D01*
X178106610Y-67349500D01*
X177893390Y-67349500D01*
X177683802Y-67388679D01*
X177683799Y-67388679D01*
X177683799Y-67388680D01*
X177484982Y-67465701D01*
X177484980Y-67465702D01*
X177303699Y-67577947D01*
X177146127Y-67721593D01*
X177017632Y-67891746D01*
X176922596Y-68082605D01*
X176922596Y-68082607D01*
X176864244Y-68287689D01*
X176860759Y-68325292D01*
X176834971Y-68390228D01*
X176824969Y-68401529D01*
X176300537Y-68925961D01*
X176261063Y-68985040D01*
X176201988Y-69073450D01*
X176201987Y-69073452D01*
X176187572Y-69108254D01*
X176187572Y-69108255D01*
X176140152Y-69222736D01*
X176134105Y-69237334D01*
X176104723Y-69385051D01*
X176104723Y-69385053D01*
X176099500Y-69411308D01*
X176099500Y-80588696D01*
X176134103Y-80762658D01*
X176134105Y-80762666D01*
X176168046Y-80844606D01*
X176168046Y-80844607D01*
X176201984Y-80926542D01*
X176201988Y-80926549D01*
X176238061Y-80980537D01*
X176238062Y-80980537D01*
X176300537Y-81074037D01*
X176300540Y-81074041D01*
X179987991Y-84761490D01*
X180021476Y-84822813D01*
X180016492Y-84892505D01*
X180011311Y-84904442D01*
X179922595Y-85082610D01*
X179864244Y-85287689D01*
X179844572Y-85499994D01*
X179844571Y-85500000D01*
X179864244Y-85712310D01*
X179893844Y-85816343D01*
X179922596Y-85917392D01*
X179922596Y-85917394D01*
X180017632Y-86108253D01*
X180081426Y-86192729D01*
X180146128Y-86278407D01*
X180303698Y-86422052D01*
X180484981Y-86534298D01*
X180683802Y-86611321D01*
X180893390Y-86650500D01*
X180893392Y-86650500D01*
X181106608Y-86650500D01*
X181106610Y-86650500D01*
X181316198Y-86611321D01*
X181515019Y-86534298D01*
X181696302Y-86422052D01*
X181853872Y-86278407D01*
X181982366Y-86108255D01*
X182020764Y-86031141D01*
X182077403Y-85917394D01*
X182077403Y-85917393D01*
X182077405Y-85917389D01*
X182135756Y-85712310D01*
X182155429Y-85500000D01*
X182155428Y-85499994D01*
X182151187Y-85454217D01*
X182135756Y-85287690D01*
X182077405Y-85082611D01*
X182077403Y-85082606D01*
X182077403Y-85082605D01*
X181982366Y-84891746D01*
X181982366Y-84891745D01*
X181925546Y-84816503D01*
X181900854Y-84751141D01*
X181900500Y-84741776D01*
X181900500Y-84411308D01*
X181894166Y-84379463D01*
X181894166Y-84379462D01*
X181879933Y-84307911D01*
X181865895Y-84237334D01*
X181822513Y-84132602D01*
X181798013Y-84073453D01*
X181798012Y-84073451D01*
X181798011Y-84073449D01*
X181699465Y-83925966D01*
X181699464Y-83925965D01*
X181574035Y-83800536D01*
X177936819Y-80163319D01*
X177903334Y-80101996D01*
X177900500Y-80075638D01*
X177900500Y-69924360D01*
X177920185Y-69857321D01*
X177936810Y-69836688D01*
X178099617Y-69673880D01*
X178160937Y-69640398D01*
X178164473Y-69639682D01*
X178316198Y-69611321D01*
X178316201Y-69611319D01*
X178316205Y-69611319D01*
X178430706Y-69566961D01*
X178500329Y-69561098D01*
X178562069Y-69593808D01*
X178596324Y-69654704D01*
X178599500Y-69682587D01*
X178599500Y-77828696D01*
X178634103Y-78002659D01*
X178634105Y-78002665D01*
X178656547Y-78056844D01*
X178656546Y-78056844D01*
X178656547Y-78056845D01*
X178701984Y-78166542D01*
X178701986Y-78166545D01*
X178701987Y-78166547D01*
X178727979Y-78205446D01*
X178727982Y-78205450D01*
X178800537Y-78314038D01*
X178800538Y-78314039D01*
X187024588Y-86538088D01*
X187058073Y-86599411D01*
X187053089Y-86669103D01*
X187011217Y-86725036D01*
X186947714Y-86749297D01*
X186825390Y-86759999D01*
X186782023Y-86763793D01*
X186782020Y-86763793D01*
X186570677Y-86820422D01*
X186570668Y-86820426D01*
X186426009Y-86887882D01*
X186373604Y-86899500D01*
X178086611Y-86899500D01*
X177913389Y-86899500D01*
X177873728Y-86905781D01*
X177742302Y-86926597D01*
X177577552Y-86980128D01*
X177423211Y-87058768D01*
X177343256Y-87116859D01*
X177283072Y-87160586D01*
X177283070Y-87160588D01*
X177283069Y-87160588D01*
X177160588Y-87283069D01*
X177160588Y-87283070D01*
X177160586Y-87283072D01*
X177116859Y-87343256D01*
X177058768Y-87423211D01*
X176980128Y-87577552D01*
X176926597Y-87742302D01*
X176902377Y-87895223D01*
X176899500Y-87913389D01*
X176899500Y-106913389D01*
X176899500Y-107086611D01*
X176926598Y-107257701D01*
X176980127Y-107422445D01*
X177058768Y-107576788D01*
X177160586Y-107716928D01*
X177283072Y-107839414D01*
X177423212Y-107941232D01*
X177577555Y-108019873D01*
X177742299Y-108073402D01*
X177913389Y-108100500D01*
X177913390Y-108100500D01*
X184046610Y-108100500D01*
X184046611Y-108100500D01*
X184217701Y-108073402D01*
X184382445Y-108019873D01*
X184536788Y-107941232D01*
X184676928Y-107839414D01*
X184799414Y-107716928D01*
X184901232Y-107576788D01*
X184979873Y-107422445D01*
X185033402Y-107257701D01*
X185060500Y-107086611D01*
X185060500Y-104095848D01*
X185080185Y-104028809D01*
X185109014Y-103997472D01*
X185112839Y-103994536D01*
X185112841Y-103994536D01*
X185238282Y-103898282D01*
X185334536Y-103772841D01*
X185395044Y-103626762D01*
X185410500Y-103509361D01*
X185410499Y-101730640D01*
X185410499Y-101730639D01*
X185410499Y-101730636D01*
X185395046Y-101613246D01*
X185395044Y-101613239D01*
X185395044Y-101613238D01*
X185334536Y-101467159D01*
X185238282Y-101341718D01*
X185112841Y-101245464D01*
X185112840Y-101245463D01*
X185112838Y-101245462D01*
X185092822Y-101237171D01*
X185038419Y-101193329D01*
X185016356Y-101127034D01*
X185033637Y-101059335D01*
X185049042Y-101038634D01*
X185108571Y-100973969D01*
X185126193Y-100946995D01*
X185179337Y-100901641D01*
X185248568Y-100892217D01*
X185311904Y-100921718D01*
X185333804Y-100946992D01*
X185351429Y-100973969D01*
X185514236Y-101150825D01*
X185514239Y-101150827D01*
X185514242Y-101150830D01*
X185703924Y-101298466D01*
X185703930Y-101298470D01*
X185703933Y-101298472D01*
X185783845Y-101341718D01*
X185912435Y-101411308D01*
X185915344Y-101412882D01*
X185915347Y-101412883D01*
X186142699Y-101490933D01*
X186142701Y-101490933D01*
X186142703Y-101490934D01*
X186379808Y-101530500D01*
X186379809Y-101530500D01*
X186620191Y-101530500D01*
X186620192Y-101530500D01*
X186857297Y-101490934D01*
X187084656Y-101412882D01*
X187296067Y-101298472D01*
X187485764Y-101150825D01*
X187605721Y-101020517D01*
X187665609Y-100984526D01*
X187696951Y-100980500D01*
X187975500Y-100980500D01*
X188042539Y-101000185D01*
X188088294Y-101052989D01*
X188099500Y-101104500D01*
X188099500Y-117611309D01*
X188099500Y-117788691D01*
X188099500Y-117788693D01*
X188099499Y-117788693D01*
X188111955Y-117851308D01*
X188105728Y-117920900D01*
X188062865Y-117976077D01*
X187996975Y-117999322D01*
X187990338Y-117999500D01*
X175124500Y-117999500D01*
X175057461Y-117979815D01*
X175011706Y-117927011D01*
X175000500Y-117875500D01*
X175000500Y-114878711D01*
X176149500Y-114878711D01*
X176149500Y-115121288D01*
X176181161Y-115361785D01*
X176243947Y-115596104D01*
X176245354Y-115599500D01*
X176336776Y-115820212D01*
X176458064Y-116030289D01*
X176458066Y-116030292D01*
X176458067Y-116030293D01*
X176605733Y-116222736D01*
X176605739Y-116222743D01*
X176777256Y-116394260D01*
X176777262Y-116394265D01*
X176969711Y-116541936D01*
X177179788Y-116663224D01*
X177403900Y-116756054D01*
X177638211Y-116818838D01*
X177818586Y-116842584D01*
X177878711Y-116850500D01*
X177878712Y-116850500D01*
X178121289Y-116850500D01*
X178169388Y-116844167D01*
X178361789Y-116818838D01*
X178596100Y-116756054D01*
X178820212Y-116663224D01*
X179030289Y-116541936D01*
X179222738Y-116394265D01*
X179394265Y-116222738D01*
X179541936Y-116030289D01*
X179663224Y-115820212D01*
X179756054Y-115596100D01*
X179818838Y-115361789D01*
X179850500Y-115121288D01*
X179850500Y-114878712D01*
X179818838Y-114638211D01*
X179756054Y-114403900D01*
X179663224Y-114179788D01*
X179541936Y-113969711D01*
X179394265Y-113777262D01*
X179394260Y-113777256D01*
X179222743Y-113605739D01*
X179222736Y-113605733D01*
X179030293Y-113458067D01*
X179030292Y-113458066D01*
X179030289Y-113458064D01*
X178820212Y-113336776D01*
X178820205Y-113336773D01*
X178596104Y-113243947D01*
X178361785Y-113181161D01*
X178121289Y-113149500D01*
X178121288Y-113149500D01*
X177878712Y-113149500D01*
X177878711Y-113149500D01*
X177638214Y-113181161D01*
X177403895Y-113243947D01*
X177179794Y-113336773D01*
X177179785Y-113336777D01*
X176969706Y-113458067D01*
X176777263Y-113605733D01*
X176777256Y-113605739D01*
X176605739Y-113777256D01*
X176605733Y-113777263D01*
X176458067Y-113969706D01*
X176336777Y-114179785D01*
X176336773Y-114179794D01*
X176243947Y-114403895D01*
X176181161Y-114638214D01*
X176149500Y-114878711D01*
X175000500Y-114878711D01*
X175000500Y-58624500D01*
X175020185Y-58557461D01*
X175072989Y-58511706D01*
X175124500Y-58500500D01*
X235375500Y-58500500D01*
X235442539Y-58520185D01*
G37*
%TD.AperFunction*%
%TA.AperFunction,Conductor*%
G36*
X223160835Y-66530185D02*
G01*
X223206590Y-66582989D01*
X223216534Y-66652147D01*
X223187509Y-66715703D01*
X223181477Y-66722181D01*
X219847736Y-70055920D01*
X219786413Y-70089405D01*
X219716721Y-70084421D01*
X219712602Y-70082800D01*
X219496110Y-69993126D01*
X219251151Y-69934317D01*
X219000000Y-69914551D01*
X218748848Y-69934317D01*
X218503889Y-69993126D01*
X218271140Y-70089533D01*
X218056346Y-70221160D01*
X218056343Y-70221161D01*
X217864776Y-70384776D01*
X217701161Y-70576343D01*
X217701160Y-70576346D01*
X217569533Y-70791140D01*
X217473126Y-71023889D01*
X217414317Y-71268848D01*
X217394551Y-71520000D01*
X217414317Y-71771151D01*
X217473126Y-72016110D01*
X217569533Y-72248859D01*
X217701160Y-72463653D01*
X217701161Y-72463656D01*
X217701164Y-72463659D01*
X217864776Y-72655224D01*
X218013066Y-72781875D01*
X218056343Y-72818838D01*
X218056346Y-72818839D01*
X218271140Y-72950466D01*
X218498247Y-73044536D01*
X218503889Y-73046873D01*
X218748852Y-73105683D01*
X219000000Y-73125449D01*
X219000001Y-73125448D01*
X219004857Y-73125831D01*
X219004725Y-73127498D01*
X219064784Y-73145134D01*
X219085426Y-73161768D01*
X227768181Y-81844523D01*
X227801666Y-81905846D01*
X227804500Y-81932204D01*
X227804500Y-84505426D01*
X227784815Y-84572465D01*
X227771732Y-84589407D01*
X227756429Y-84606030D01*
X227738807Y-84633003D01*
X227685660Y-84678358D01*
X227616429Y-84687780D01*
X227553093Y-84658277D01*
X227531193Y-84633003D01*
X227529154Y-84629883D01*
X227513571Y-84606031D01*
X227350764Y-84429175D01*
X227350759Y-84429171D01*
X227350757Y-84429169D01*
X227161075Y-84281533D01*
X227161069Y-84281529D01*
X226949657Y-84167118D01*
X226949652Y-84167116D01*
X226722300Y-84089066D01*
X226544468Y-84059391D01*
X226485192Y-84049500D01*
X226244808Y-84049500D01*
X226197387Y-84057413D01*
X226007699Y-84089066D01*
X225780347Y-84167116D01*
X225780342Y-84167118D01*
X225568930Y-84281529D01*
X225568924Y-84281533D01*
X225379242Y-84429169D01*
X225379238Y-84429172D01*
X225259279Y-84559483D01*
X225199391Y-84595474D01*
X225168049Y-84599500D01*
X220709723Y-84599500D01*
X220642684Y-84579815D01*
X220596929Y-84527011D01*
X220586105Y-84465775D01*
X220605449Y-84220000D01*
X220585683Y-83968852D01*
X220526873Y-83723889D01*
X220430466Y-83491141D01*
X220430466Y-83491140D01*
X220298839Y-83276346D01*
X220298838Y-83276343D01*
X220135224Y-83084776D01*
X220087819Y-83044289D01*
X220049627Y-82985784D01*
X220049128Y-82915916D01*
X220086482Y-82856870D01*
X220087756Y-82855764D01*
X220135224Y-82815224D01*
X220298836Y-82623659D01*
X220430466Y-82408859D01*
X220526873Y-82176111D01*
X220585683Y-81931148D01*
X220605449Y-81680000D01*
X220585683Y-81428852D01*
X220526873Y-81183889D01*
X220451760Y-81002549D01*
X220430466Y-80951140D01*
X220298839Y-80736346D01*
X220298838Y-80736343D01*
X220135224Y-80544776D01*
X220087819Y-80504289D01*
X220049627Y-80445784D01*
X220049128Y-80375916D01*
X220086482Y-80316870D01*
X220087756Y-80315764D01*
X220135224Y-80275224D01*
X220298836Y-80083659D01*
X220430466Y-79868859D01*
X220526873Y-79636111D01*
X220585683Y-79391148D01*
X220605449Y-79140000D01*
X220585683Y-78888852D01*
X220526873Y-78643889D01*
X220501489Y-78582607D01*
X220430466Y-78411140D01*
X220298839Y-78196346D01*
X220298838Y-78196343D01*
X220135224Y-78004776D01*
X220132745Y-78002659D01*
X220087819Y-77964289D01*
X220049627Y-77905784D01*
X220049128Y-77835916D01*
X220086482Y-77776870D01*
X220087756Y-77775764D01*
X220135224Y-77735224D01*
X220298836Y-77543659D01*
X220430466Y-77328859D01*
X220526873Y-77096111D01*
X220585683Y-76851148D01*
X220605449Y-76600000D01*
X220585683Y-76348852D01*
X220526873Y-76103889D01*
X220430466Y-75871141D01*
X220430466Y-75871140D01*
X220298839Y-75656346D01*
X220298838Y-75656343D01*
X220261875Y-75613066D01*
X220135224Y-75464776D01*
X220008571Y-75356604D01*
X219943656Y-75301161D01*
X219943653Y-75301160D01*
X219728859Y-75169533D01*
X219496110Y-75073126D01*
X219251151Y-75014317D01*
X219000000Y-74994551D01*
X218748848Y-75014317D01*
X218503889Y-75073126D01*
X218271140Y-75169533D01*
X218056346Y-75301160D01*
X218056343Y-75301161D01*
X217864776Y-75464776D01*
X217701161Y-75656343D01*
X217701160Y-75656346D01*
X217569533Y-75871140D01*
X217473126Y-76103889D01*
X217414317Y-76348848D01*
X217394551Y-76600000D01*
X217414284Y-76850743D01*
X217399919Y-76919120D01*
X217378347Y-76948152D01*
X216263319Y-78063181D01*
X216201996Y-78096666D01*
X216175638Y-78099500D01*
X199266391Y-78099500D01*
X199201113Y-78080927D01*
X199184547Y-78070670D01*
X199015019Y-77965702D01*
X199015017Y-77965701D01*
X198860351Y-77905784D01*
X198816198Y-77888679D01*
X198606610Y-77849500D01*
X198393390Y-77849500D01*
X198183802Y-77888679D01*
X198183799Y-77888679D01*
X198183799Y-77888680D01*
X197984982Y-77965701D01*
X197984980Y-77965702D01*
X197803699Y-78077947D01*
X197646127Y-78221593D01*
X197517632Y-78391746D01*
X197422596Y-78582605D01*
X197422596Y-78582607D01*
X197364244Y-78787689D01*
X197344571Y-78999999D01*
X197344571Y-79000000D01*
X197364244Y-79212310D01*
X197422596Y-79417392D01*
X197422596Y-79417394D01*
X197517632Y-79608253D01*
X197628661Y-79755277D01*
X197646128Y-79778407D01*
X197803698Y-79922052D01*
X197984981Y-80034298D01*
X198183802Y-80111321D01*
X198393390Y-80150500D01*
X198393392Y-80150500D01*
X198606608Y-80150500D01*
X198606610Y-80150500D01*
X198816198Y-80111321D01*
X199015019Y-80034298D01*
X199196302Y-79922052D01*
X199196302Y-79922051D01*
X199201113Y-79919073D01*
X199266391Y-79900500D01*
X216666637Y-79900500D01*
X216733676Y-79920185D01*
X216779431Y-79972989D01*
X216789375Y-80042147D01*
X216760350Y-80105703D01*
X216754318Y-80112181D01*
X214800536Y-82065963D01*
X214786933Y-82086322D01*
X214773420Y-82106547D01*
X214701985Y-82213455D01*
X214668046Y-82295393D01*
X214634107Y-82377327D01*
X214634105Y-82377333D01*
X214634105Y-82377334D01*
X214604327Y-82527042D01*
X214604327Y-82527044D01*
X214599500Y-82551308D01*
X214599500Y-105896000D01*
X214579815Y-105963039D01*
X214527011Y-106008794D01*
X214475500Y-106020000D01*
X197390000Y-106020000D01*
X197390000Y-112510000D01*
X197411845Y-112531845D01*
X197445330Y-112593168D01*
X197448159Y-112618433D01*
X197455704Y-113474407D01*
X197436611Y-113541617D01*
X197384213Y-113587836D01*
X197331709Y-113599500D01*
X192024500Y-113599500D01*
X191957461Y-113579815D01*
X191911706Y-113527011D01*
X191900500Y-113475500D01*
X191900500Y-107782744D01*
X191920185Y-107715705D01*
X191972989Y-107669950D01*
X192042147Y-107660006D01*
X192105703Y-107689031D01*
X192139061Y-107735292D01*
X192169531Y-107808855D01*
X192169533Y-107808858D01*
X192301160Y-108023653D01*
X192301161Y-108023656D01*
X192356604Y-108088571D01*
X192464776Y-108215224D01*
X192613066Y-108341875D01*
X192656343Y-108378838D01*
X192656346Y-108378839D01*
X192871140Y-108510466D01*
X193040414Y-108580581D01*
X193103889Y-108606873D01*
X193325602Y-108660101D01*
X193386194Y-108694892D01*
X193418358Y-108756918D01*
X193411882Y-108826487D01*
X193368823Y-108881511D01*
X193344108Y-108895236D01*
X193244118Y-108936653D01*
X193244109Y-108936657D01*
X193045382Y-109051392D01*
X192863338Y-109191081D01*
X192701081Y-109353338D01*
X192561392Y-109535382D01*
X192446657Y-109734109D01*
X192446650Y-109734123D01*
X192358842Y-109946112D01*
X192299453Y-110167759D01*
X192299451Y-110167770D01*
X192269500Y-110395258D01*
X192269500Y-110624741D01*
X192294446Y-110814215D01*
X192299452Y-110852238D01*
X192299453Y-110852240D01*
X192358842Y-111073887D01*
X192446650Y-111285876D01*
X192446657Y-111285890D01*
X192561392Y-111484617D01*
X192701081Y-111666661D01*
X192701089Y-111666670D01*
X192863330Y-111828911D01*
X192863338Y-111828918D01*
X193045382Y-111968607D01*
X193045385Y-111968608D01*
X193045388Y-111968611D01*
X193244112Y-112083344D01*
X193244117Y-112083346D01*
X193244123Y-112083349D01*
X193335480Y-112121190D01*
X193456113Y-112171158D01*
X193677762Y-112230548D01*
X193905266Y-112260500D01*
X193905273Y-112260500D01*
X194134727Y-112260500D01*
X194134734Y-112260500D01*
X194362238Y-112230548D01*
X194583887Y-112171158D01*
X194795888Y-112083344D01*
X194994612Y-111968611D01*
X195176661Y-111828919D01*
X195176665Y-111828914D01*
X195176670Y-111828911D01*
X195338911Y-111666670D01*
X195338914Y-111666665D01*
X195338919Y-111666661D01*
X195478611Y-111484612D01*
X195593344Y-111285888D01*
X195681158Y-111073887D01*
X195740548Y-110852238D01*
X195770500Y-110624734D01*
X195770500Y-110395266D01*
X195740548Y-110167762D01*
X195681158Y-109946113D01*
X195593344Y-109734112D01*
X195478611Y-109535388D01*
X195478608Y-109535385D01*
X195478607Y-109535382D01*
X195338918Y-109353338D01*
X195338911Y-109353330D01*
X195176670Y-109191089D01*
X195176661Y-109191081D01*
X194994617Y-109051392D01*
X194795890Y-108936657D01*
X194795876Y-108936650D01*
X194583887Y-108848842D01*
X194362238Y-108789452D01*
X194319095Y-108783772D01*
X194284635Y-108779235D01*
X194220738Y-108750968D01*
X194182268Y-108692643D01*
X194181437Y-108622779D01*
X194218510Y-108563555D01*
X194253369Y-108541735D01*
X194328854Y-108510468D01*
X194328859Y-108510466D01*
X194543659Y-108378836D01*
X194735224Y-108215224D01*
X194898836Y-108023659D01*
X195030466Y-107808859D01*
X195126873Y-107576111D01*
X195185683Y-107331148D01*
X195205449Y-107080000D01*
X195185683Y-106828852D01*
X195126873Y-106583889D01*
X195064273Y-106432759D01*
X195030466Y-106351140D01*
X194898839Y-106136346D01*
X194898838Y-106136343D01*
X194735224Y-105944776D01*
X194687819Y-105904289D01*
X194649627Y-105845784D01*
X194649128Y-105775916D01*
X194686482Y-105716870D01*
X194687756Y-105715764D01*
X194735224Y-105675224D01*
X194898836Y-105483659D01*
X195030466Y-105268859D01*
X195126873Y-105036111D01*
X195185683Y-104791148D01*
X195205449Y-104540000D01*
X195185683Y-104288852D01*
X195126873Y-104043889D01*
X195083473Y-103939111D01*
X195030466Y-103811140D01*
X194898839Y-103596346D01*
X194898838Y-103596343D01*
X194735224Y-103404776D01*
X194687819Y-103364289D01*
X194649627Y-103305784D01*
X194649128Y-103235916D01*
X194686482Y-103176870D01*
X194687756Y-103175764D01*
X194735224Y-103135224D01*
X194898836Y-102943659D01*
X195030466Y-102728859D01*
X195126873Y-102496111D01*
X195185683Y-102251148D01*
X195205449Y-102000000D01*
X195185683Y-101748852D01*
X195126873Y-101503889D01*
X195089177Y-101412882D01*
X195030466Y-101271140D01*
X194898839Y-101056346D01*
X194898838Y-101056343D01*
X194735224Y-100864776D01*
X194709294Y-100842630D01*
X194687819Y-100824289D01*
X194649627Y-100765784D01*
X194649128Y-100695916D01*
X194686482Y-100636870D01*
X194687756Y-100635764D01*
X194735224Y-100595224D01*
X194898836Y-100403659D01*
X195030466Y-100188859D01*
X195126873Y-99956111D01*
X195185683Y-99711148D01*
X195205449Y-99460000D01*
X195185683Y-99208852D01*
X195126873Y-98963889D01*
X195064273Y-98812759D01*
X195030466Y-98731140D01*
X194898839Y-98516346D01*
X194898838Y-98516343D01*
X194735224Y-98324776D01*
X194687819Y-98284289D01*
X194649627Y-98225784D01*
X194649128Y-98155916D01*
X194686482Y-98096870D01*
X194687756Y-98095764D01*
X194735224Y-98055224D01*
X194898836Y-97863659D01*
X195030466Y-97648859D01*
X195126873Y-97416111D01*
X195185683Y-97171148D01*
X195205449Y-96920000D01*
X195185683Y-96668852D01*
X195126873Y-96423889D01*
X195030466Y-96191140D01*
X194898839Y-95976346D01*
X194898838Y-95976343D01*
X194735224Y-95784776D01*
X194731421Y-95781528D01*
X194687819Y-95744289D01*
X194649627Y-95685784D01*
X194649128Y-95615916D01*
X194686482Y-95556870D01*
X194687756Y-95555764D01*
X194735224Y-95515224D01*
X194898836Y-95323659D01*
X195030466Y-95108859D01*
X195126873Y-94876111D01*
X195185683Y-94631148D01*
X195205449Y-94380000D01*
X195185683Y-94128852D01*
X195126873Y-93883889D01*
X195101089Y-93821641D01*
X195030466Y-93651140D01*
X194898839Y-93436346D01*
X194898838Y-93436343D01*
X194735224Y-93244776D01*
X194729116Y-93239559D01*
X194687819Y-93204289D01*
X194649627Y-93145784D01*
X194649128Y-93075916D01*
X194686482Y-93016870D01*
X194687756Y-93015764D01*
X194735224Y-92975224D01*
X194898836Y-92783659D01*
X195030466Y-92568859D01*
X195126873Y-92336111D01*
X195185683Y-92091148D01*
X195205449Y-91840000D01*
X195185683Y-91588852D01*
X195126873Y-91343889D01*
X195042643Y-91140538D01*
X195030466Y-91111140D01*
X194898839Y-90896346D01*
X194898838Y-90896343D01*
X194735224Y-90704776D01*
X194687819Y-90664289D01*
X194649627Y-90605784D01*
X194649128Y-90535916D01*
X194686482Y-90476870D01*
X194687756Y-90475764D01*
X194735224Y-90435224D01*
X194898836Y-90243659D01*
X195030466Y-90028859D01*
X195126873Y-89796111D01*
X195185683Y-89551148D01*
X195205449Y-89300000D01*
X195185683Y-89048852D01*
X195126873Y-88803889D01*
X195030466Y-88571140D01*
X194898839Y-88356346D01*
X194898838Y-88356343D01*
X194735224Y-88164776D01*
X194687819Y-88124289D01*
X194649627Y-88065784D01*
X194649128Y-87995916D01*
X194686482Y-87936870D01*
X194687756Y-87935764D01*
X194735224Y-87895224D01*
X194898836Y-87703659D01*
X195030466Y-87488859D01*
X195126873Y-87256111D01*
X195185683Y-87011148D01*
X195205449Y-86760000D01*
X195185683Y-86508852D01*
X195126873Y-86263889D01*
X195030466Y-86031141D01*
X195030466Y-86031140D01*
X194898839Y-85816346D01*
X194898838Y-85816343D01*
X194735224Y-85624776D01*
X194687819Y-85584289D01*
X194649627Y-85525784D01*
X194649128Y-85455916D01*
X194686482Y-85396870D01*
X194687756Y-85395764D01*
X194735224Y-85355224D01*
X194898836Y-85163659D01*
X195030466Y-84948859D01*
X195126873Y-84716111D01*
X195185683Y-84471148D01*
X195205449Y-84220000D01*
X195185683Y-83968852D01*
X195126873Y-83723889D01*
X195030466Y-83491141D01*
X195030466Y-83491140D01*
X194898839Y-83276346D01*
X194898838Y-83276343D01*
X194735224Y-83084776D01*
X194687819Y-83044289D01*
X194649627Y-82985784D01*
X194649128Y-82915916D01*
X194686482Y-82856870D01*
X194687756Y-82855764D01*
X194735224Y-82815224D01*
X194898836Y-82623659D01*
X195030466Y-82408859D01*
X195126873Y-82176111D01*
X195185683Y-81931148D01*
X195205449Y-81680000D01*
X195185683Y-81428852D01*
X195126873Y-81183889D01*
X195051760Y-81002549D01*
X195030466Y-80951140D01*
X194898839Y-80736346D01*
X194898838Y-80736343D01*
X194735224Y-80544776D01*
X194687819Y-80504289D01*
X194649627Y-80445784D01*
X194649128Y-80375916D01*
X194686482Y-80316870D01*
X194687756Y-80315764D01*
X194735224Y-80275224D01*
X194898836Y-80083659D01*
X195030466Y-79868859D01*
X195126873Y-79636111D01*
X195185683Y-79391148D01*
X195205449Y-79140000D01*
X195185683Y-78888852D01*
X195126873Y-78643889D01*
X195101489Y-78582607D01*
X195030466Y-78411140D01*
X194898839Y-78196346D01*
X194898838Y-78196343D01*
X194735224Y-78004776D01*
X194732745Y-78002659D01*
X194687819Y-77964289D01*
X194649627Y-77905784D01*
X194649128Y-77835916D01*
X194686482Y-77776870D01*
X194687756Y-77775764D01*
X194735224Y-77735224D01*
X194898572Y-77543967D01*
X194957079Y-77505775D01*
X194992862Y-77500500D01*
X201988693Y-77500500D01*
X201988694Y-77500499D01*
X202162666Y-77465895D01*
X202244606Y-77431953D01*
X202326547Y-77398013D01*
X202442665Y-77320425D01*
X202449830Y-77315638D01*
X202453122Y-77313438D01*
X202474036Y-77299464D01*
X213226681Y-66546819D01*
X213288004Y-66513334D01*
X213314362Y-66510500D01*
X223093796Y-66510500D01*
X223160835Y-66530185D01*
G37*
%TD.AperFunction*%
%TD*%
M02*
