M48
; DRILL file {KiCad 8.0.5} date 2024-09-12T11:41:02-0500
; FORMAT={-:-/ absolute / inch / decimal}
; #@! TF.CreationDate,2024-09-12T11:41:02-05:00
; #@! TF.GenerationSoftware,Kicad,Pcbnew,8.0.5
; #@! TF.FileFunction,Plated,1,2,PTH
FMAT,2
INCH
; #@! TA.AperFunction,Plated,PTH,ViaDrill
T1C0.0256
; #@! TA.AperFunction,Plated,PTH,ComponentDrill
T2C0.0394
; #@! TA.AperFunction,Plated,PTH,ComponentDrill
T3C0.0402
%
G90
G05
T1
X3.563Y-2.2835
X3.7598Y-4.5866
X3.8386Y-4.4094
X3.9961Y-4.4094
X4.0551Y-4.5866
X4.2913Y-2.4016
X4.2913Y-2.508
X4.4291Y-2.3819
X4.4488Y-3.7795
X4.5276Y-4.0945
X4.6457Y-2.0098
X4.6457Y-2.1891
X4.6654Y-3.563
X4.6654Y-4.3307
X4.8238Y-4.0935
X4.8622Y-2.5
X5.0197Y-2.3819
X5.315Y-4.2205
X5.6102Y-4.2315
X5.6614Y-2.9528
X5.6693Y-3.4252
T2
X3.4537Y-2.5
X3.5537Y-2.5
X3.6575Y-4.1102
X3.6575Y-4.2102
X3.6575Y-4.3102
X3.6575Y-4.4102
X3.6575Y-4.5102
X4.5457Y-2.2425
X4.5457Y-2.3425
X4.6457Y-2.2425
X4.6457Y-2.3425
X4.7457Y-2.2425
X4.7457Y-2.3425
X4.8457Y-2.2425
X4.8457Y-2.3425
X5.5504Y-2.2362
X5.6504Y-2.2362
X5.7087Y-4.1339
X5.7087Y-4.2339
X5.7087Y-4.3339
X5.7087Y-4.4339
X5.7087Y-4.5339
X5.7504Y-2.2362
X5.8504Y-2.2362
T3
X4.185Y-2.7935
X4.185Y-2.8935
X4.185Y-2.9935
X4.185Y-3.0935
X4.185Y-3.1935
X4.185Y-3.2935
X4.185Y-3.3935
X4.185Y-3.4935
X4.185Y-3.5935
X4.185Y-3.6935
X4.185Y-3.7935
X4.185Y-3.8935
X4.185Y-3.9935
X4.185Y-4.0935
X4.185Y-4.1935
X5.185Y-2.7935
X5.185Y-2.8935
X5.185Y-2.9935
X5.185Y-3.0935
X5.185Y-3.1935
X5.185Y-3.2935
X5.185Y-3.3935
X5.185Y-3.4935
X5.185Y-3.5935
X5.185Y-3.6935
X5.185Y-3.7935
X5.185Y-3.8935
X5.185Y-3.9935
X5.185Y-4.0935
X5.185Y-4.1935
M30
