M48
; DRILL file {KiCad 8.0.5} date 2024-09-11T15:11:49-0500
; FORMAT={-:-/ absolute / inch / decimal}
; #@! TF.CreationDate,2024-09-11T15:11:49-05:00
; #@! TF.GenerationSoftware,Kicad,Pcbnew,8.0.5
; #@! TF.FileFunction,Plated,1,2,PTH
FMAT,2
INCH
; #@! TA.AperFunction,Plated,PTH,ViaDrill
T1C0.0256
; #@! TA.AperFunction,Plated,PTH,ComponentDrill
T2C0.0394
; #@! TA.AperFunction,Plated,PTH,ComponentDrill
T3C0.0402
%
G90
G05
T1
X7.3622Y-3.0906
X7.3622Y-3.4646
X8.0709Y-2.7756
X8.189Y-2.8937
X8.7992Y-3.189
X9.0354Y-2.8543
T2
X7.0622Y-2.4803
X7.1622Y-2.4803
X7.2441Y-3.7386
X7.2441Y-3.8386
X7.2441Y-3.9386
X7.2441Y-4.0386
X7.2622Y-2.4803
X7.3441Y-3.7386
X7.3441Y-3.8386
X7.3441Y-3.9386
X7.3441Y-4.0386
X7.3622Y-2.4803
X8.8945Y-2.4803
X8.912Y-3.3661
X8.912Y-3.5118
X8.912Y-3.8189
X8.9142Y-3.6614
X8.9945Y-2.4803
X9.012Y-3.3661
X9.012Y-3.5118
X9.012Y-3.8189
X9.0142Y-3.6614
X9.0945Y-2.4803
X9.112Y-3.3661
X9.112Y-3.5118
X9.112Y-3.8189
X9.1142Y-3.6614
T3
X7.622Y-2.8157
X7.622Y-2.9157
X7.622Y-3.0157
X7.622Y-3.1157
X7.622Y-3.2157
X7.622Y-3.3157
X7.622Y-3.4157
X7.622Y-3.5157
X7.622Y-3.6157
X7.622Y-3.7157
X7.622Y-3.8157
X7.622Y-3.9157
X7.622Y-4.0157
X7.622Y-4.1157
X7.622Y-4.2157
X8.622Y-2.8157
X8.622Y-2.9157
X8.622Y-3.0157
X8.622Y-3.1157
X8.622Y-3.2157
X8.622Y-3.3157
X8.622Y-3.4157
X8.622Y-3.5157
X8.622Y-3.6157
X8.622Y-3.7157
X8.622Y-3.8157
X8.622Y-3.9157
X8.622Y-4.0157
X8.622Y-4.1157
X8.622Y-4.2157
M30
